<?xml version="1.0" encoding="utf-8" standalone="no"?>
<!DOCTYPE svg PUBLIC "-//W3C//DTD SVG 1.1//EN"
  "http://www.w3.org/Graphics/SVG/1.1/DTD/svg11.dtd">
<svg xmlns:xlink="http://www.w3.org/1999/xlink" width="595.050043pt" height="249.378015pt" viewBox="0 0 595.050043 249.378015" xmlns="http://www.w3.org/2000/svg" version="1.1">
 <metadata>
  <rdf:RDF xmlns:dc="http://purl.org/dc/elements/1.1/" xmlns:cc="http://creativecommons.org/ns#" xmlns:rdf="http://www.w3.org/1999/02/22-rdf-syntax-ns#">
   <cc:Work>
    <dc:type rdf:resource="http://purl.org/dc/dcmitype/StillImage"/>
    <dc:date>2026-07-11T13:10:43.708475</dc:date>
    <dc:format>image/svg+xml</dc:format>
    <dc:creator>
     <cc:Agent>
      <dc:title>Matplotlib v3.11.0, https://matplotlib.org/</dc:title>
     </cc:Agent>
    </dc:creator>
   </cc:Work>
  </rdf:RDF>
 </metadata>
 <defs>
  <style type="text/css">*{stroke-linejoin: round; stroke-linecap: butt}</style>
 </defs>
 <g id="figure_1">
  <g id="patch_1">
   <path d="M 0 249.378015 
L 595.050043 249.378015 
L 595.050043 0 
L 0 0 
L 0 249.378015 
z
" style="fill: none"/>
  </g>
  <g id="axes_1">
   <g id="patch_2">
    <path d="M 47.288984 207.525437 
L 291.717315 207.525437 
L 291.717315 20.418516 
L 47.288984 20.418516 
L 47.288984 207.525437 
z
" style="fill: none"/>
   </g>
   <g id="matplotlib.axis_1">
    <g id="xtick_1">
     <g id="line2d_1">
      <path d="M 58.399363 207.525437 
L 58.399363 20.418516 
" clip-path="url(#p847b4c0000)" style="fill: none; stroke: #d8dee4; stroke-width: 0.6; stroke-linecap: square"/>
     </g>
     <g id="line2d_2">
      <defs>
       <path id="m208339d32b" d="M 0 0 
L 0 3.5 
" style="stroke: #26323f; stroke-width: 0.8"/>
      </defs>
      <g>
       <use xlink:href="#m208339d32b" x="58.399363" y="207.525437" style="fill: #26323f; stroke: #26323f; stroke-width: 0.8"/>
      </g>
     </g>
     <g id="text_1">
      <!-- −4 -->
      <g style="fill: #26323f" transform="translate(50.29116 222.882859) scale(0.11 -0.11)">
       <defs>
        <path id="DejaVuSans-c9c" d="M 678 2272 
L 4684 2272 
L 4684 1741 
L 678 1741 
L 678 2272 
z
" transform="scale(0.015625)"/>
        <path id="DejaVuSans-17" d="M 2419 4116 
L 825 1625 
L 2419 1625 
L 2419 4116 
z
M 2253 4666 
L 3047 4666 
L 3047 1625 
L 3713 1625 
L 3713 1100 
L 3047 1100 
L 3047 0 
L 2419 0 
L 2419 1100 
L 313 1100 
L 313 1709 
L 2253 4666 
z
" transform="scale(0.015625)"/>
       </defs>
       <use xlink:href="#DejaVuSans-c9c"/>
       <use xlink:href="#DejaVuSans-17" transform="translate(83.796875 0)"/>
      </g>
     </g>
    </g>
    <g id="xtick_2">
     <g id="line2d_3">
      <path d="M 113.951256 207.525437 
L 113.951256 20.418516 
" clip-path="url(#p847b4c0000)" style="fill: none; stroke: #d8dee4; stroke-width: 0.6; stroke-linecap: square"/>
     </g>
     <g id="line2d_4">
      <g>
       <use xlink:href="#m208339d32b" x="113.951256" y="207.525437" style="fill: #26323f; stroke: #26323f; stroke-width: 0.8"/>
      </g>
     </g>
     <g id="text_2">
      <!-- −2 -->
      <g style="fill: #26323f" transform="translate(105.843053 222.882859) scale(0.11 -0.11)">
       <defs>
        <path id="DejaVuSans-15" d="M 1228 531 
L 3431 531 
L 3431 0 
L 469 0 
L 469 531 
Q 828 903 1448 1529 
Q 2069 2156 2228 2338 
Q 2531 2678 2651 2914 
Q 2772 3150 2772 3378 
Q 2772 3750 2511 3984 
Q 2250 4219 1831 4219 
Q 1534 4219 1204 4116 
Q 875 4013 500 3803 
L 500 4441 
Q 881 4594 1212 4672 
Q 1544 4750 1819 4750 
Q 2544 4750 2975 4387 
Q 3406 4025 3406 3419 
Q 3406 3131 3298 2873 
Q 3191 2616 2906 2266 
Q 2828 2175 2409 1742 
Q 1991 1309 1228 531 
z
" transform="scale(0.015625)"/>
       </defs>
       <use xlink:href="#DejaVuSans-c9c"/>
       <use xlink:href="#DejaVuSans-15" transform="translate(83.796875 0)"/>
      </g>
     </g>
    </g>
    <g id="xtick_3">
     <g id="line2d_5">
      <path d="M 169.50315 207.525437 
L 169.50315 20.418516 
" clip-path="url(#p847b4c0000)" style="fill: none; stroke: #d8dee4; stroke-width: 0.6; stroke-linecap: square"/>
     </g>
     <g id="line2d_6">
      <g>
       <use xlink:href="#m208339d32b" x="169.50315" y="207.525437" style="fill: #26323f; stroke: #26323f; stroke-width: 0.8"/>
      </g>
     </g>
     <g id="text_3">
      <!-- 0 -->
      <g style="fill: #26323f" transform="translate(166.003775 222.882859) scale(0.11 -0.11)">
       <defs>
        <path id="DejaVuSans-13" d="M 2034 4250 
Q 1547 4250 1301 3770 
Q 1056 3291 1056 2328 
Q 1056 1369 1301 889 
Q 1547 409 2034 409 
Q 2525 409 2770 889 
Q 3016 1369 3016 2328 
Q 3016 3291 2770 3770 
Q 2525 4250 2034 4250 
z
M 2034 4750 
Q 2819 4750 3233 4129 
Q 3647 3509 3647 2328 
Q 3647 1150 3233 529 
Q 2819 -91 2034 -91 
Q 1250 -91 836 529 
Q 422 1150 422 2328 
Q 422 3509 836 4129 
Q 1250 4750 2034 4750 
z
" transform="scale(0.015625)"/>
       </defs>
       <use xlink:href="#DejaVuSans-13"/>
      </g>
     </g>
    </g>
    <g id="xtick_4">
     <g id="line2d_7">
      <path d="M 225.055043 207.525437 
L 225.055043 20.418516 
" clip-path="url(#p847b4c0000)" style="fill: none; stroke: #d8dee4; stroke-width: 0.6; stroke-linecap: square"/>
     </g>
     <g id="line2d_8">
      <g>
       <use xlink:href="#m208339d32b" x="225.055043" y="207.525437" style="fill: #26323f; stroke: #26323f; stroke-width: 0.8"/>
      </g>
     </g>
     <g id="text_4">
      <!-- 2 -->
      <g style="fill: #26323f" transform="translate(221.555668 222.882859) scale(0.11 -0.11)">
       <use xlink:href="#DejaVuSans-15"/>
      </g>
     </g>
    </g>
    <g id="xtick_5">
     <g id="line2d_9">
      <path d="M 280.606937 207.525437 
L 280.606937 20.418516 
" clip-path="url(#p847b4c0000)" style="fill: none; stroke: #d8dee4; stroke-width: 0.6; stroke-linecap: square"/>
     </g>
     <g id="line2d_10">
      <g>
       <use xlink:href="#m208339d32b" x="280.606937" y="207.525437" style="fill: #26323f; stroke: #26323f; stroke-width: 0.8"/>
      </g>
     </g>
     <g id="text_5">
      <!-- 4 -->
      <g style="fill: #26323f" transform="translate(277.107562 222.882859) scale(0.11 -0.11)">
       <use xlink:href="#DejaVuSans-17"/>
      </g>
     </g>
    </g>
    <g id="text_6">
     <!-- linear predictor $\eta=x^\top\beta$ -->
     <g style="fill: #26323f" transform="translate(103.33815 239.535437) scale(0.11 -0.11)">
      <defs>
       <path id="DejaVuSans-4f" d="M 603 4863 
L 1178 4863 
L 1178 0 
L 603 0 
L 603 4863 
z
" transform="scale(0.015625)"/>
       <path id="DejaVuSans-4c" d="M 603 3500 
L 1178 3500 
L 1178 0 
L 603 0 
L 603 3500 
z
M 603 4863 
L 1178 4863 
L 1178 4134 
L 603 4134 
L 603 4863 
z
" transform="scale(0.015625)"/>
       <path id="DejaVuSans-51" d="M 3513 2113 
L 3513 0 
L 2938 0 
L 2938 2094 
Q 2938 2591 2744 2837 
Q 2550 3084 2163 3084 
Q 1697 3084 1428 2787 
Q 1159 2491 1159 1978 
L 1159 0 
L 581 0 
L 581 3500 
L 1159 3500 
L 1159 2956 
Q 1366 3272 1645 3428 
Q 1925 3584 2291 3584 
Q 2894 3584 3203 3211 
Q 3513 2838 3513 2113 
z
" transform="scale(0.015625)"/>
       <path id="DejaVuSans-48" d="M 3597 1894 
L 3597 1613 
L 953 1613 
Q 991 1019 1311 708 
Q 1631 397 2203 397 
Q 2534 397 2845 478 
Q 3156 559 3463 722 
L 3463 178 
Q 3153 47 2828 -22 
Q 2503 -91 2169 -91 
Q 1331 -91 842 396 
Q 353 884 353 1716 
Q 353 2575 817 3079 
Q 1281 3584 2069 3584 
Q 2775 3584 3186 3129 
Q 3597 2675 3597 1894 
z
M 3022 2063 
Q 3016 2534 2758 2815 
Q 2500 3097 2075 3097 
Q 1594 3097 1305 2825 
Q 1016 2553 972 2059 
L 3022 2063 
z
" transform="scale(0.015625)"/>
       <path id="DejaVuSans-44" d="M 2194 1759 
Q 1497 1759 1228 1600 
Q 959 1441 959 1056 
Q 959 750 1161 570 
Q 1363 391 1709 391 
Q 2188 391 2477 730 
Q 2766 1069 2766 1631 
L 2766 1759 
L 2194 1759 
z
M 3341 1997 
L 3341 0 
L 2766 0 
L 2766 531 
Q 2569 213 2275 61 
Q 1981 -91 1556 -91 
Q 1019 -91 701 211 
Q 384 513 384 1019 
Q 384 1609 779 1909 
Q 1175 2209 1959 2209 
L 2766 2209 
L 2766 2266 
Q 2766 2663 2505 2880 
Q 2244 3097 1772 3097 
Q 1472 3097 1187 3025 
Q 903 2953 641 2809 
L 641 3341 
Q 956 3463 1253 3523 
Q 1550 3584 1831 3584 
Q 2591 3584 2966 3190 
Q 3341 2797 3341 1997 
z
" transform="scale(0.015625)"/>
       <path id="DejaVuSans-55" d="M 2631 2963 
Q 2534 3019 2420 3045 
Q 2306 3072 2169 3072 
Q 1681 3072 1420 2755 
Q 1159 2438 1159 1844 
L 1159 0 
L 581 0 
L 581 3500 
L 1159 3500 
L 1159 2956 
Q 1341 3275 1631 3429 
Q 1922 3584 2338 3584 
Q 2397 3584 2469 3576 
Q 2541 3569 2628 3553 
L 2631 2963 
z
" transform="scale(0.015625)"/>
       <path id="DejaVuSans-3" transform="scale(0.015625)"/>
       <path id="DejaVuSans-53" d="M 1159 525 
L 1159 -1331 
L 581 -1331 
L 581 3500 
L 1159 3500 
L 1159 2969 
Q 1341 3281 1617 3432 
Q 1894 3584 2278 3584 
Q 2916 3584 3314 3078 
Q 3713 2572 3713 1747 
Q 3713 922 3314 415 
Q 2916 -91 2278 -91 
Q 1894 -91 1617 61 
Q 1341 213 1159 525 
z
M 3116 1747 
Q 3116 2381 2855 2742 
Q 2594 3103 2138 3103 
Q 1681 3103 1420 2742 
Q 1159 2381 1159 1747 
Q 1159 1113 1420 752 
Q 1681 391 2138 391 
Q 2594 391 2855 752 
Q 3116 1113 3116 1747 
z
" transform="scale(0.015625)"/>
       <path id="DejaVuSans-47" d="M 2906 2969 
L 2906 4863 
L 3481 4863 
L 3481 0 
L 2906 0 
L 2906 525 
Q 2725 213 2448 61 
Q 2172 -91 1784 -91 
Q 1150 -91 751 415 
Q 353 922 353 1747 
Q 353 2572 751 3078 
Q 1150 3584 1784 3584 
Q 2172 3584 2448 3432 
Q 2725 3281 2906 2969 
z
M 947 1747 
Q 947 1113 1208 752 
Q 1469 391 1925 391 
Q 2381 391 2643 752 
Q 2906 1113 2906 1747 
Q 2906 2381 2643 2742 
Q 2381 3103 1925 3103 
Q 1469 3103 1208 2742 
Q 947 2381 947 1747 
z
" transform="scale(0.015625)"/>
       <path id="DejaVuSans-46" d="M 3122 3366 
L 3122 2828 
Q 2878 2963 2633 3030 
Q 2388 3097 2138 3097 
Q 1578 3097 1268 2742 
Q 959 2388 959 1747 
Q 959 1106 1268 751 
Q 1578 397 2138 397 
Q 2388 397 2633 464 
Q 2878 531 3122 666 
L 3122 134 
Q 2881 22 2623 -34 
Q 2366 -91 2075 -91 
Q 1284 -91 818 406 
Q 353 903 353 1747 
Q 353 2603 823 3093 
Q 1294 3584 2113 3584 
Q 2378 3584 2631 3529 
Q 2884 3475 3122 3366 
z
" transform="scale(0.015625)"/>
       <path id="DejaVuSans-57" d="M 1172 4494 
L 1172 3500 
L 2356 3500 
L 2356 3053 
L 1172 3053 
L 1172 1153 
Q 1172 725 1289 603 
Q 1406 481 1766 481 
L 2356 481 
L 2356 0 
L 1766 0 
Q 1100 0 847 248 
Q 594 497 594 1153 
L 594 3053 
L 172 3053 
L 172 3500 
L 594 3500 
L 594 4494 
L 1172 4494 
z
" transform="scale(0.015625)"/>
       <path id="DejaVuSans-52" d="M 1959 3097 
Q 1497 3097 1228 2736 
Q 959 2375 959 1747 
Q 959 1119 1226 758 
Q 1494 397 1959 397 
Q 2419 397 2687 759 
Q 2956 1122 2956 1747 
Q 2956 2369 2687 2733 
Q 2419 3097 1959 3097 
z
M 1959 3584 
Q 2709 3584 3137 3096 
Q 3566 2609 3566 1747 
Q 3566 888 3137 398 
Q 2709 -91 1959 -91 
Q 1206 -91 779 398 
Q 353 888 353 1747 
Q 353 2609 779 3096 
Q 1206 3584 1959 3584 
z
" transform="scale(0.015625)"/>
       <path id="DejaVuSans-Oblique-34b" d="M 3703 2113 
L 3034 -1331 
L 2459 -1331 
L 3125 2094 
Q 3222 2591 3075 2838 
Q 2931 3084 2544 3084 
Q 2078 3084 1750 2788 
Q 1425 2491 1325 1978 
L 941 0 
L 363 0 
L 1044 3500 
L 1622 3500 
L 1516 2956 
Q 1781 3272 2094 3428 
Q 2403 3584 2769 3584 
Q 3372 3584 3609 3213 
Q 3844 2838 3703 2113 
z
" transform="scale(0.015625)"/>
       <path id="DejaVuSans-20" d="M 678 2906 
L 4684 2906 
L 4684 2381 
L 678 2381 
L 678 2906 
z
M 678 1631 
L 4684 1631 
L 4684 1100 
L 678 1100 
L 678 1631 
z
" transform="scale(0.015625)"/>
       <path id="DejaVuSans-Oblique-5b" d="M 3841 3500 
L 2234 1784 
L 3219 0 
L 2559 0 
L 1819 1388 
L 531 0 
L -166 0 
L 1556 1844 
L 641 3500 
L 1300 3500 
L 1972 2234 
L 3144 3500 
L 3841 3500 
z
" transform="scale(0.015625)"/>
       <path id="DejaVuSans-d2e" d="M 5028 4481 
L 5028 4084 
L 2988 4084 
L 2988 0 
L 2588 0 
L 2588 4084 
L 547 4084 
L 547 4481 
L 5028 4481 
z
" transform="scale(0.015625)"/>
       <path id="DejaVuSans-Oblique-346" d="M 872 216 
L 572 -1331 
L -6 -1331 
L 928 3478 
Q 1206 4903 2538 4903 
Q 3888 4903 3659 3700 
Q 3503 2844 2894 2531 
Q 3713 2250 3553 1416 
Q 3272 -69 1759 -66 
Q 1097 -63 872 216 
z
M 1019 966 
Q 1259 422 1875 425 
Q 2775 425 2966 1406 
Q 3138 2288 1675 2219 
L 1778 2750 
Q 2909 2731 3106 3750 
Q 3241 4438 2509 4434 
Q 1691 4434 1503 3459 
L 1019 966 
z
" transform="scale(0.015625)"/>
      </defs>
      <use xlink:href="#DejaVuSans-4f" transform="translate(0 0.689063)"/>
      <use xlink:href="#DejaVuSans-4c" transform="translate(27.783203 0.689063)"/>
      <use xlink:href="#DejaVuSans-51" transform="translate(55.566406 0.689063)"/>
      <use xlink:href="#DejaVuSans-48" transform="translate(118.945312 0.689063)"/>
      <use xlink:href="#DejaVuSans-44" transform="translate(180.46875 0.689063)"/>
      <use xlink:href="#DejaVuSans-55" transform="translate(241.748047 0.689063)"/>
      <use xlink:href="#DejaVuSans-3" transform="translate(282.861328 0.689063)"/>
      <use xlink:href="#DejaVuSans-53" transform="translate(314.648438 0.689063)"/>
      <use xlink:href="#DejaVuSans-55" transform="translate(378.125 0.689063)"/>
      <use xlink:href="#DejaVuSans-48" transform="translate(417.238281 0.689063)"/>
      <use xlink:href="#DejaVuSans-47" transform="translate(478.761719 0.689063)"/>
      <use xlink:href="#DejaVuSans-4c" transform="translate(542.238281 0.689063)"/>
      <use xlink:href="#DejaVuSans-46" transform="translate(570.021484 0.689063)"/>
      <use xlink:href="#DejaVuSans-57" transform="translate(625.001953 0.689063)"/>
      <use xlink:href="#DejaVuSans-52" transform="translate(664.210938 0.689063)"/>
      <use xlink:href="#DejaVuSans-55" transform="translate(725.392578 0.689063)"/>
      <use xlink:href="#DejaVuSans-3" transform="translate(766.505859 0.689063)"/>
      <use xlink:href="#DejaVuSans-Oblique-34b" transform="translate(798.292969 0.689063)"/>
      <use xlink:href="#DejaVuSans-20" transform="translate(881.154297 0.689063)"/>
      <use xlink:href="#DejaVuSans-Oblique-5b" transform="translate(984.425781 0.689063)"/>
      <use xlink:href="#DejaVuSans-d2e" transform="translate(1061.70931 41.989063) scale(0.7)"/>
      <use xlink:href="#DejaVuSans-Oblique-346" transform="translate(1139.057943 0.689063)"/>
     </g>
    </g>
   </g>
   <g id="matplotlib.axis_2">
    <g id="ytick_1">
     <g id="line2d_11">
      <path d="M 47.288984 190.515717 
L 291.717315 190.515717 
" clip-path="url(#p847b4c0000)" style="fill: none; stroke: #d8dee4; stroke-width: 0.6; stroke-linecap: square"/>
     </g>
     <g id="line2d_12">
      <defs>
       <path id="m750ed48b41" d="M 0 0 
L -3.5 0 
" style="stroke: #26323f; stroke-width: 0.8"/>
      </defs>
      <g>
       <use xlink:href="#m750ed48b41" x="47.288984" y="190.515717" style="fill: #26323f; stroke: #26323f; stroke-width: 0.8"/>
      </g>
     </g>
     <g id="text_7">
      <!-- −1 -->
      <g style="fill: #26323f" transform="translate(24.072578 194.694428) scale(0.11 -0.11)">
       <defs>
        <path id="DejaVuSans-14" d="M 794 531 
L 1825 531 
L 1825 4091 
L 703 3866 
L 703 4441 
L 1819 4666 
L 2450 4666 
L 2450 531 
L 3481 531 
L 3481 0 
L 794 0 
L 794 531 
z
" transform="scale(0.015625)"/>
       </defs>
       <use xlink:href="#DejaVuSans-c9c"/>
       <use xlink:href="#DejaVuSans-14" transform="translate(83.796875 0)"/>
      </g>
     </g>
    </g>
    <g id="ytick_2">
     <g id="line2d_13">
      <path d="M 47.288984 156.496276 
L 291.717315 156.496276 
" clip-path="url(#p847b4c0000)" style="fill: none; stroke: #d8dee4; stroke-width: 0.6; stroke-linecap: square"/>
     </g>
     <g id="line2d_14">
      <g>
       <use xlink:href="#m750ed48b41" x="47.288984" y="156.496276" style="fill: #26323f; stroke: #26323f; stroke-width: 0.8"/>
      </g>
     </g>
     <g id="text_8">
      <!-- 0 -->
      <g style="fill: #26323f" transform="translate(33.290234 160.674987) scale(0.11 -0.11)">
       <use xlink:href="#DejaVuSans-13"/>
      </g>
     </g>
    </g>
    <g id="ytick_3">
     <g id="line2d_15">
      <path d="M 47.288984 122.476836 
L 291.717315 122.476836 
" clip-path="url(#p847b4c0000)" style="fill: none; stroke: #d8dee4; stroke-width: 0.6; stroke-linecap: square"/>
     </g>
     <g id="line2d_16">
      <g>
       <use xlink:href="#m750ed48b41" x="47.288984" y="122.476836" style="fill: #26323f; stroke: #26323f; stroke-width: 0.8"/>
      </g>
     </g>
     <g id="text_9">
      <!-- 1 -->
      <g style="fill: #26323f" transform="translate(33.290234 126.655547) scale(0.11 -0.11)">
       <use xlink:href="#DejaVuSans-14"/>
      </g>
     </g>
    </g>
    <g id="ytick_4">
     <g id="line2d_17">
      <path d="M 47.288984 88.457396 
L 291.717315 88.457396 
" clip-path="url(#p847b4c0000)" style="fill: none; stroke: #d8dee4; stroke-width: 0.6; stroke-linecap: square"/>
     </g>
     <g id="line2d_18">
      <g>
       <use xlink:href="#m750ed48b41" x="47.288984" y="88.457396" style="fill: #26323f; stroke: #26323f; stroke-width: 0.8"/>
      </g>
     </g>
     <g id="text_10">
      <!-- 2 -->
      <g style="fill: #26323f" transform="translate(33.290234 92.636107) scale(0.11 -0.11)">
       <use xlink:href="#DejaVuSans-15"/>
      </g>
     </g>
    </g>
    <g id="ytick_5">
     <g id="line2d_19">
      <path d="M 47.288984 54.437956 
L 291.717315 54.437956 
" clip-path="url(#p847b4c0000)" style="fill: none; stroke: #d8dee4; stroke-width: 0.6; stroke-linecap: square"/>
     </g>
     <g id="line2d_20">
      <g>
       <use xlink:href="#m750ed48b41" x="47.288984" y="54.437956" style="fill: #26323f; stroke: #26323f; stroke-width: 0.8"/>
      </g>
     </g>
     <g id="text_11">
      <!-- 3 -->
      <g style="fill: #26323f" transform="translate(33.290234 58.616667) scale(0.11 -0.11)">
       <defs>
        <path id="DejaVuSans-16" d="M 2597 2516 
Q 3050 2419 3304 2112 
Q 3559 1806 3559 1356 
Q 3559 666 3084 287 
Q 2609 -91 1734 -91 
Q 1441 -91 1130 -33 
Q 819 25 488 141 
L 488 750 
Q 750 597 1062 519 
Q 1375 441 1716 441 
Q 2309 441 2620 675 
Q 2931 909 2931 1356 
Q 2931 1769 2642 2001 
Q 2353 2234 1838 2234 
L 1294 2234 
L 1294 2753 
L 1863 2753 
Q 2328 2753 2575 2939 
Q 2822 3125 2822 3475 
Q 2822 3834 2567 4026 
Q 2313 4219 1838 4219 
Q 1578 4219 1281 4162 
Q 984 4106 628 3988 
L 628 4550 
Q 988 4650 1302 4700 
Q 1616 4750 1894 4750 
Q 2613 4750 3031 4423 
Q 3450 4097 3450 3541 
Q 3450 3153 3228 2886 
Q 3006 2619 2597 2516 
z
" transform="scale(0.015625)"/>
       </defs>
       <use xlink:href="#DejaVuSans-16"/>
      </g>
     </g>
    </g>
    <g id="ytick_6">
     <g id="line2d_21">
      <path d="M 47.288984 20.418516 
L 291.717315 20.418516 
" clip-path="url(#p847b4c0000)" style="fill: none; stroke: #d8dee4; stroke-width: 0.6; stroke-linecap: square"/>
     </g>
     <g id="line2d_22">
      <g>
       <use xlink:href="#m750ed48b41" x="47.288984" y="20.418516" style="fill: #26323f; stroke: #26323f; stroke-width: 0.8"/>
      </g>
     </g>
     <g id="text_12">
      <!-- 4 -->
      <g style="fill: #26323f" transform="translate(33.290234 24.597227) scale(0.11 -0.11)">
       <use xlink:href="#DejaVuSans-17"/>
      </g>
     </g>
    </g>
    <g id="text_13">
     <!-- mean $\mu=g^{-1}(\eta)$ -->
     <g style="fill: #26323f" transform="translate(17.43 158.961976) rotate(-90) scale(0.11 -0.11)">
      <defs>
       <path id="DejaVuSans-50" d="M 3328 2828 
Q 3544 3216 3844 3400 
Q 4144 3584 4550 3584 
Q 5097 3584 5394 3201 
Q 5691 2819 5691 2113 
L 5691 0 
L 5113 0 
L 5113 2094 
Q 5113 2597 4934 2840 
Q 4756 3084 4391 3084 
Q 3944 3084 3684 2787 
Q 3425 2491 3425 1978 
L 3425 0 
L 2847 0 
L 2847 2094 
Q 2847 2600 2669 2842 
Q 2491 3084 2119 3084 
Q 1678 3084 1418 2786 
Q 1159 2488 1159 1978 
L 1159 0 
L 581 0 
L 581 3500 
L 1159 3500 
L 1159 2956 
Q 1356 3278 1631 3431 
Q 1906 3584 2284 3584 
Q 2666 3584 2933 3390 
Q 3200 3197 3328 2828 
z
" transform="scale(0.015625)"/>
       <path id="DejaVuSans-Oblique-350" d="M -84 -1331 
L 856 3500 
L 1434 3500 
L 1009 1322 
Q 997 1256 987 1175 
Q 978 1094 978 1013 
Q 978 722 1161 565 
Q 1344 409 1684 409 
Q 2147 409 2431 671 
Q 2716 934 2816 1459 
L 3213 3500 
L 3788 3500 
L 3266 809 
Q 3253 750 3248 706 
Q 3244 663 3244 628 
Q 3244 531 3283 486 
Q 3322 441 3406 441 
Q 3438 441 3492 456 
Q 3547 472 3647 513 
L 3559 50 
Q 3422 -19 3297 -55 
Q 3172 -91 3053 -91 
Q 2847 -91 2730 40 
Q 2613 172 2613 403 
Q 2438 153 2195 31 
Q 1953 -91 1625 -91 
Q 1334 -91 1117 43 
Q 900 178 831 397 
L 494 -1331 
L -84 -1331 
z
" transform="scale(0.015625)"/>
       <path id="DejaVuSans-Oblique-4a" d="M 3816 3500 
L 3219 434 
Q 3047 -456 2561 -893 
Q 2075 -1331 1253 -1331 
Q 950 -1331 690 -1286 
Q 431 -1241 206 -1147 
L 313 -588 
Q 525 -725 762 -790 
Q 1000 -856 1269 -856 
Q 1816 -856 2167 -557 
Q 2519 -259 2631 300 
L 2681 563 
Q 2441 288 2122 144 
Q 1803 0 1434 0 
Q 903 0 598 351 
Q 294 703 294 1319 
Q 294 1803 478 2267 
Q 663 2731 997 3091 
Q 1219 3328 1514 3456 
Q 1809 3584 2131 3584 
Q 2484 3584 2746 3420 
Q 3009 3256 3138 2956 
L 3238 3500 
L 3816 3500 
z
M 2950 2216 
Q 2950 2641 2750 2872 
Q 2550 3103 2181 3103 
Q 1953 3103 1747 3012 
Q 1541 2922 1394 2759 
Q 1156 2491 1023 2127 
Q 891 1763 891 1375 
Q 891 944 1092 712 
Q 1294 481 1672 481 
Q 2219 481 2584 976 
Q 2950 1472 2950 2216 
z
" transform="scale(0.015625)"/>
       <path id="DejaVuSans-b" d="M 1984 4856 
Q 1566 4138 1362 3434 
Q 1159 2731 1159 2009 
Q 1159 1288 1364 580 
Q 1569 -128 1984 -844 
L 1484 -844 
Q 1016 -109 783 600 
Q 550 1309 550 2009 
Q 550 2706 781 3412 
Q 1013 4119 1484 4856 
L 1984 4856 
z
" transform="scale(0.015625)"/>
       <path id="DejaVuSans-c" d="M 513 4856 
L 1013 4856 
Q 1481 4119 1714 3412 
Q 1947 2706 1947 2009 
Q 1947 1309 1714 600 
Q 1481 -109 1013 -844 
L 513 -844 
Q 928 -128 1133 580 
Q 1338 1288 1338 2009 
Q 1338 2731 1133 3434 
Q 928 4138 513 4856 
z
" transform="scale(0.015625)"/>
      </defs>
      <use xlink:href="#DejaVuSans-50" transform="translate(0 0.665625)"/>
      <use xlink:href="#DejaVuSans-48" transform="translate(97.412109 0.665625)"/>
      <use xlink:href="#DejaVuSans-44" transform="translate(158.935547 0.665625)"/>
      <use xlink:href="#DejaVuSans-51" transform="translate(220.214844 0.665625)"/>
      <use xlink:href="#DejaVuSans-3" transform="translate(283.59375 0.665625)"/>
      <use xlink:href="#DejaVuSans-Oblique-350" transform="translate(315.380859 0.665625)"/>
      <use xlink:href="#DejaVuSans-20" transform="translate(398.486328 0.665625)"/>
      <use xlink:href="#DejaVuSans-Oblique-4a" transform="translate(501.757812 0.665625)"/>
      <use xlink:href="#DejaVuSans-c9c" transform="translate(569.884271 41.965625) scale(0.7)"/>
      <use xlink:href="#DejaVuSans-14" transform="translate(628.536615 41.965625) scale(0.7)"/>
      <use xlink:href="#DejaVuSans-b" transform="translate(675.807122 0.665625)"/>
      <use xlink:href="#DejaVuSans-Oblique-34b" transform="translate(714.820794 0.665625)"/>
      <use xlink:href="#DejaVuSans-c" transform="translate(778.199701 0.665625)"/>
     </g>
    </g>
   </g>
   <g id="line2d_23">
    <path d="M 92.851266 250.378015 
L 280.606937 20.418516 
L 280.606937 20.418516 
" clip-path="url(#p847b4c0000)" style="fill: none; stroke-dasharray: 6.66,2.88; stroke-dashoffset: 0; stroke: #5b6b7a; stroke-width: 1.8"/>
   </g>
   <g id="line2d_24">
    <path d="M 58.399363 155.884396 
L 74.005915 155.437424 
L 86.63979 154.856979 
L 97.044158 154.163193 
L 105.962188 153.361282 
L 114.137049 152.417107 
L 121.56874 151.354861 
L 129.000432 150.075321 
L 136.432123 148.564804 
L 143.863814 146.823483 
L 152.038675 144.664615 
L 161.699874 141.86029 
L 189.197132 133.696896 
L 197.371993 131.60372 
L 204.803684 129.930588 
L 212.235376 128.49008 
L 219.667067 127.277654 
L 227.841928 126.187143 
L 236.016788 125.320238 
L 245.677987 124.535456 
L 256.082355 123.919571 
L 268.71623 123.406726 
L 280.606937 123.088717 
L 280.606937 123.088717 
" clip-path="url(#p847b4c0000)" style="fill: none; stroke: #2f6f9f; stroke-width: 2; stroke-linecap: square"/>
   </g>
   <g id="line2d_25">
    <path d="M 58.399363 155.873189 
L 73.262746 155.432262 
L 85.153452 154.863727 
L 94.814651 154.184609 
L 102.989512 153.393544 
L 110.421203 152.441718 
L 116.366556 151.473973 
L 122.311909 150.275247 
L 127.514093 148.99385 
L 131.973108 147.687385 
L 136.432123 146.153414 
L 140.891138 144.352318 
L 144.606984 142.614026 
L 148.322829 140.626915 
L 152.038675 138.355367 
L 155.011352 136.306164 
L 157.984028 134.025483 
L 160.956705 131.487175 
L 163.929381 128.662139 
L 166.902058 125.517986 
L 169.874734 122.018669 
L 172.847411 118.124068 
L 175.820088 113.789531 
L 178.792764 108.965364 
L 181.765441 103.596257 
L 184.738117 97.620655 
L 186.967625 92.70001 
L 189.197132 87.368112 
L 191.42664 81.590591 
L 193.656147 75.330203 
L 195.885654 68.54659 
L 198.115162 61.196023 
L 200.344669 53.231119 
L 202.574177 44.600532 
L 204.803684 35.248627 
L 207.033192 25.115119 
L 209.262699 14.134682 
L 212.067214 -1 
L 212.067214 -1 
" clip-path="url(#p847b4c0000)" style="fill: none; stroke: #c1531f; stroke-width: 2; stroke-linecap: square"/>
   </g>
   <g id="line2d_26">
    <path d="M 47.288984 156.496276 
L 291.717315 156.496276 
" clip-path="url(#p847b4c0000)" style="fill: none; stroke: #c9d2da; stroke-width: 0.8; stroke-linecap: square"/>
   </g>
   <g id="line2d_27">
    <path d="M 47.288984 122.476836 
L 291.717315 122.476836 
" clip-path="url(#p847b4c0000)" style="fill: none; stroke-dasharray: 0.8,1.32; stroke-dashoffset: 0; stroke: #c9d2da; stroke-width: 0.8"/>
   </g>
   <g id="patch_3">
    <path d="M 47.288984 207.525437 
L 47.288984 20.418516 
" style="fill: none; stroke: #26323f; stroke-width: 0.9; stroke-linejoin: miter; stroke-linecap: square"/>
   </g>
   <g id="patch_4">
    <path d="M 47.288984 207.525437 
L 291.717315 207.525437 
" style="fill: none; stroke: #26323f; stroke-width: 0.9; stroke-linejoin: miter; stroke-linecap: square"/>
   </g>
   <g id="text_14">
    <!-- The link maps η onto the mean's range -->
    <g style="fill: #26323f" transform="translate(76.120376 14.418516) scale(0.095 -0.095)">
     <defs>
      <path id="DejaVuSans-37" d="M -19 4666 
L 3928 4666 
L 3928 4134 
L 2272 4134 
L 2272 0 
L 1638 0 
L 1638 4134 
L -19 4134 
L -19 4666 
z
" transform="scale(0.015625)"/>
      <path id="DejaVuSans-4b" d="M 3513 2113 
L 3513 0 
L 2938 0 
L 2938 2094 
Q 2938 2591 2744 2837 
Q 2550 3084 2163 3084 
Q 1697 3084 1428 2787 
Q 1159 2491 1159 1978 
L 1159 0 
L 581 0 
L 581 4863 
L 1159 4863 
L 1159 2956 
Q 1366 3272 1645 3428 
Q 1925 3584 2291 3584 
Q 2894 3584 3203 3211 
Q 3513 2838 3513 2113 
z
" transform="scale(0.015625)"/>
      <path id="DejaVuSans-4e" d="M 581 4863 
L 1159 4863 
L 1159 1991 
L 2875 3500 
L 3609 3500 
L 1753 1863 
L 3688 0 
L 2938 0 
L 1159 1709 
L 1159 0 
L 581 0 
L 581 4863 
z
" transform="scale(0.015625)"/>
      <path id="DejaVuSans-56" d="M 2834 3397 
L 2834 2853 
Q 2591 2978 2328 3040 
Q 2066 3103 1784 3103 
Q 1356 3103 1142 2972 
Q 928 2841 928 2578 
Q 928 2378 1081 2264 
Q 1234 2150 1697 2047 
L 1894 2003 
Q 2506 1872 2764 1633 
Q 3022 1394 3022 966 
Q 3022 478 2636 193 
Q 2250 -91 1575 -91 
Q 1294 -91 989 -36 
Q 684 19 347 128 
L 347 722 
Q 666 556 975 473 
Q 1284 391 1588 391 
Q 1994 391 2212 530 
Q 2431 669 2431 922 
Q 2431 1156 2273 1281 
Q 2116 1406 1581 1522 
L 1381 1569 
Q 847 1681 609 1914 
Q 372 2147 372 2553 
Q 372 3047 722 3315 
Q 1072 3584 1716 3584 
Q 2034 3584 2315 3537 
Q 2597 3491 2834 3397 
z
" transform="scale(0.015625)"/>
      <path id="DejaVuSans-34b" d="M 3513 2113 
L 3513 -1331 
L 2938 -1331 
L 2938 2094 
Q 2938 2591 2744 2837 
Q 2550 3084 2163 3084 
Q 1697 3084 1428 2787 
Q 1159 2491 1159 1978 
L 1159 0 
L 581 0 
L 581 3500 
L 1159 3500 
L 1159 2956 
Q 1366 3272 1644 3428 
Q 1925 3584 2291 3584 
Q 2894 3584 3203 3213 
Q 3513 2838 3513 2113 
z
" transform="scale(0.015625)"/>
      <path id="DejaVuSans-a" d="M 1147 4666 
L 1147 2931 
L 616 2931 
L 616 4666 
L 1147 4666 
z
" transform="scale(0.015625)"/>
      <path id="DejaVuSans-4a" d="M 2906 1791 
Q 2906 2416 2648 2759 
Q 2391 3103 1925 3103 
Q 1463 3103 1205 2759 
Q 947 2416 947 1791 
Q 947 1169 1205 825 
Q 1463 481 1925 481 
Q 2391 481 2648 825 
Q 2906 1169 2906 1791 
z
M 3481 434 
Q 3481 -459 3084 -895 
Q 2688 -1331 1869 -1331 
Q 1566 -1331 1297 -1286 
Q 1028 -1241 775 -1147 
L 775 -588 
Q 1028 -725 1275 -790 
Q 1522 -856 1778 -856 
Q 2344 -856 2625 -561 
Q 2906 -266 2906 331 
L 2906 616 
Q 2728 306 2450 153 
Q 2172 0 1784 0 
Q 1141 0 747 490 
Q 353 981 353 1791 
Q 353 2603 747 3093 
Q 1141 3584 1784 3584 
Q 2172 3584 2450 3431 
Q 2728 3278 2906 2969 
L 2906 3500 
L 3481 3500 
L 3481 434 
z
" transform="scale(0.015625)"/>
     </defs>
     <use xlink:href="#DejaVuSans-37"/>
     <use xlink:href="#DejaVuSans-4b" transform="translate(61.078125 0)"/>
     <use xlink:href="#DejaVuSans-48" transform="translate(124.453125 0)"/>
     <use xlink:href="#DejaVuSans-3" transform="translate(185.984375 0)"/>
     <use xlink:href="#DejaVuSans-4f" transform="translate(217.765625 0)"/>
     <use xlink:href="#DejaVuSans-4c" transform="translate(245.546875 0)"/>
     <use xlink:href="#DejaVuSans-51" transform="translate(273.328125 0)"/>
     <use xlink:href="#DejaVuSans-4e" transform="translate(336.703125 0)"/>
     <use xlink:href="#DejaVuSans-3" transform="translate(394.609375 0)"/>
     <use xlink:href="#DejaVuSans-50" transform="translate(426.390625 0)"/>
     <use xlink:href="#DejaVuSans-44" transform="translate(523.796875 0)"/>
     <use xlink:href="#DejaVuSans-53" transform="translate(585.078125 0)"/>
     <use xlink:href="#DejaVuSans-56" transform="translate(648.5625 0)"/>
     <use xlink:href="#DejaVuSans-3" transform="translate(700.65625 0)"/>
     <use xlink:href="#DejaVuSans-34b" transform="translate(732.4375 0)"/>
     <use xlink:href="#DejaVuSans-3" transform="translate(795.8125 0)"/>
     <use xlink:href="#DejaVuSans-52" transform="translate(827.59375 0)"/>
     <use xlink:href="#DejaVuSans-51" transform="translate(888.78125 0)"/>
     <use xlink:href="#DejaVuSans-57" transform="translate(952.15625 0)"/>
     <use xlink:href="#DejaVuSans-52" transform="translate(991.359375 0)"/>
     <use xlink:href="#DejaVuSans-3" transform="translate(1052.546875 0)"/>
     <use xlink:href="#DejaVuSans-57" transform="translate(1084.328125 0)"/>
     <use xlink:href="#DejaVuSans-4b" transform="translate(1123.53125 0)"/>
     <use xlink:href="#DejaVuSans-48" transform="translate(1186.90625 0)"/>
     <use xlink:href="#DejaVuSans-3" transform="translate(1248.4375 0)"/>
     <use xlink:href="#DejaVuSans-50" transform="translate(1280.21875 0)"/>
     <use xlink:href="#DejaVuSans-48" transform="translate(1377.625 0)"/>
     <use xlink:href="#DejaVuSans-44" transform="translate(1439.15625 0)"/>
     <use xlink:href="#DejaVuSans-51" transform="translate(1500.4375 0)"/>
     <use xlink:href="#DejaVuSans-a" transform="translate(1563.8125 0)"/>
     <use xlink:href="#DejaVuSans-56" transform="translate(1591.296875 0)"/>
     <use xlink:href="#DejaVuSans-3" transform="translate(1643.390625 0)"/>
     <use xlink:href="#DejaVuSans-55" transform="translate(1675.171875 0)"/>
     <use xlink:href="#DejaVuSans-44" transform="translate(1716.28125 0)"/>
     <use xlink:href="#DejaVuSans-51" transform="translate(1777.5625 0)"/>
     <use xlink:href="#DejaVuSans-4a" transform="translate(1840.9375 0)"/>
     <use xlink:href="#DejaVuSans-48" transform="translate(1904.421875 0)"/>
    </g>
   </g>
   <g id="legend_1">
    <g id="line2d_28">
     <path d="M 54.488984 30.898516 
L 62.488984 30.898516 
L 70.488984 30.898516 
" style="fill: none; stroke-dasharray: 6.66,2.88; stroke-dashoffset: 0; stroke: #5b6b7a; stroke-width: 1.8"/>
    </g>
    <g id="text_15">
     <!-- identity: $\mu=\eta$ -->
     <g style="fill: #26323f" transform="translate(76.888984 33.698516) scale(0.08 -0.08)">
      <defs>
       <path id="DejaVuSans-5c" d="M 2059 -325 
Q 1816 -950 1584 -1140 
Q 1353 -1331 966 -1331 
L 506 -1331 
L 506 -850 
L 844 -850 
Q 1081 -850 1212 -737 
Q 1344 -625 1503 -206 
L 1606 56 
L 191 3500 
L 800 3500 
L 1894 763 
L 2988 3500 
L 3597 3500 
L 2059 -325 
z
" transform="scale(0.015625)"/>
       <path id="DejaVuSans-1d" d="M 750 794 
L 1409 794 
L 1409 0 
L 750 0 
L 750 794 
z
M 750 3309 
L 1409 3309 
L 1409 2516 
L 750 2516 
L 750 3309 
z
" transform="scale(0.015625)"/>
      </defs>
      <use xlink:href="#DejaVuSans-4c" transform="translate(0 0.015625)"/>
      <use xlink:href="#DejaVuSans-47" transform="translate(27.783203 0.015625)"/>
      <use xlink:href="#DejaVuSans-48" transform="translate(91.259766 0.015625)"/>
      <use xlink:href="#DejaVuSans-51" transform="translate(152.783203 0.015625)"/>
      <use xlink:href="#DejaVuSans-57" transform="translate(216.162109 0.015625)"/>
      <use xlink:href="#DejaVuSans-4c" transform="translate(255.371094 0.015625)"/>
      <use xlink:href="#DejaVuSans-57" transform="translate(283.154297 0.015625)"/>
      <use xlink:href="#DejaVuSans-5c" transform="translate(322.363281 0.015625)"/>
      <use xlink:href="#DejaVuSans-1d" transform="translate(374.542969 0.015625)"/>
      <use xlink:href="#DejaVuSans-3" transform="translate(408.234375 0.015625)"/>
      <use xlink:href="#DejaVuSans-Oblique-350" transform="translate(440.021484 0.015625)"/>
      <use xlink:href="#DejaVuSans-20" transform="translate(523.126953 0.015625)"/>
      <use xlink:href="#DejaVuSans-Oblique-34b" transform="translate(626.398438 0.015625)"/>
     </g>
    </g>
    <g id="line2d_29">
     <path d="M 54.488984 44.260391 
L 62.488984 44.260391 
L 70.488984 44.260391 
" style="fill: none; stroke: #2f6f9f; stroke-width: 2; stroke-linecap: square"/>
    </g>
    <g id="text_16">
     <!-- logit$^{-1}$: sigmoid $\in[0,1]$ -->
     <g style="fill: #26323f" transform="translate(76.888984 47.060391) scale(0.08 -0.08)">
      <defs>
       <path id="DejaVuSans-c92" d="M 1072 1959 
Q 1094 1728 1291 1353 
Q 1522 919 1959 675 
Q 2388 438 2850 434 
L 5028 434 
L 5028 -63 
L 2850 -63 
Q 2250 -63 1695 246 
Q 1141 556 844 1106 
Q 547 1656 547 2241 
Q 547 2819 844 3369 
Q 1141 3919 1695 4231 
Q 2250 4544 2850 4544 
L 5028 4544 
L 5028 4047 
L 2850 4047 
Q 2388 4044 1959 3803 
Q 1525 3556 1291 3125 
Q 1091 2750 1063 2459 
L 5028 2459 
L 5028 1959 
L 1072 1959 
z
" transform="scale(0.015625)"/>
       <path id="DejaVuSans-3e" d="M 550 4863 
L 1875 4863 
L 1875 4416 
L 1125 4416 
L 1125 -397 
L 1875 -397 
L 1875 -844 
L 550 -844 
L 550 4863 
z
" transform="scale(0.015625)"/>
       <path id="DejaVuSans-f" d="M 750 794 
L 1409 794 
L 1409 256 
L 897 -744 
L 494 -744 
L 750 256 
L 750 794 
z
" transform="scale(0.015625)"/>
       <path id="DejaVuSans-40" d="M 1947 4863 
L 1947 -844 
L 622 -844 
L 622 -397 
L 1369 -397 
L 1369 4416 
L 622 4416 
L 622 4863 
L 1947 4863 
z
" transform="scale(0.015625)"/>
      </defs>
      <use xlink:href="#DejaVuSans-4f" transform="translate(0 0.665625)"/>
      <use xlink:href="#DejaVuSans-52" transform="translate(27.783203 0.665625)"/>
      <use xlink:href="#DejaVuSans-4a" transform="translate(88.964844 0.665625)"/>
      <use xlink:href="#DejaVuSans-4c" transform="translate(152.441406 0.665625)"/>
      <use xlink:href="#DejaVuSans-57" transform="translate(180.224609 0.665625)"/>
      <use xlink:href="#DejaVuSans-c9c" transform="translate(220.390625 41.965625) scale(0.7)"/>
      <use xlink:href="#DejaVuSans-14" transform="translate(279.042969 41.965625) scale(0.7)"/>
      <use xlink:href="#DejaVuSans-1d" transform="translate(326.313477 0.665625)"/>
      <use xlink:href="#DejaVuSans-3" transform="translate(360.004883 0.665625)"/>
      <use xlink:href="#DejaVuSans-56" transform="translate(391.791992 0.665625)"/>
      <use xlink:href="#DejaVuSans-4c" transform="translate(443.891602 0.665625)"/>
      <use xlink:href="#DejaVuSans-4a" transform="translate(471.674805 0.665625)"/>
      <use xlink:href="#DejaVuSans-50" transform="translate(535.151367 0.665625)"/>
      <use xlink:href="#DejaVuSans-52" transform="translate(632.563477 0.665625)"/>
      <use xlink:href="#DejaVuSans-4c" transform="translate(693.745117 0.665625)"/>
      <use xlink:href="#DejaVuSans-47" transform="translate(721.52832 0.665625)"/>
      <use xlink:href="#DejaVuSans-3" transform="translate(785.004883 0.665625)"/>
      <use xlink:href="#DejaVuSans-c92" transform="translate(836.274414 0.665625)"/>
      <use xlink:href="#DejaVuSans-3e" transform="translate(942.866211 0.665625)"/>
      <use xlink:href="#DejaVuSans-13" transform="translate(981.879883 0.665625)"/>
      <use xlink:href="#DejaVuSans-f" transform="translate(1045.50293 0.665625)"/>
      <use xlink:href="#DejaVuSans-14" transform="translate(1096.772461 0.665625)"/>
      <use xlink:href="#DejaVuSans-40" transform="translate(1160.395508 0.665625)"/>
     </g>
    </g>
    <g id="line2d_30">
     <path d="M 54.488984 57.622266 
L 62.488984 57.622266 
L 70.488984 57.622266 
" style="fill: none; stroke: #c1531f; stroke-width: 2; stroke-linecap: square"/>
    </g>
    <g id="text_17">
     <!-- log$^{-1}$: $e^\eta&gt;0$ -->
     <g style="fill: #26323f" transform="translate(76.888984 60.422266) scale(0.08 -0.08)">
      <defs>
       <path id="DejaVuSans-Oblique-48" d="M 3078 2063 
Q 3088 2113 3092 2166 
Q 3097 2219 3097 2272 
Q 3097 2653 2873 2875 
Q 2650 3097 2266 3097 
Q 1838 3097 1509 2826 
Q 1181 2556 1013 2059 
L 3078 2063 
z
M 3578 1613 
L 903 1613 
Q 884 1494 878 1425 
Q 872 1356 872 1306 
Q 872 872 1139 634 
Q 1406 397 1894 397 
Q 2269 397 2603 481 
Q 2938 566 3225 728 
L 3116 159 
Q 2806 34 2476 -28 
Q 2147 -91 1806 -91 
Q 1078 -91 686 257 
Q 294 606 294 1247 
Q 294 1794 489 2264 
Q 684 2734 1063 3103 
Q 1306 3334 1642 3459 
Q 1978 3584 2356 3584 
Q 2950 3584 3301 3228 
Q 3653 2872 3653 2272 
Q 3653 2128 3634 1964 
Q 3616 1800 3578 1613 
z
" transform="scale(0.015625)"/>
       <path id="DejaVuSans-21" d="M 678 3150 
L 678 3719 
L 4684 2266 
L 4684 1747 
L 678 294 
L 678 863 
L 3897 2003 
L 678 3150 
z
" transform="scale(0.015625)"/>
      </defs>
      <use xlink:href="#DejaVuSans-4f" transform="translate(0 0.665625)"/>
      <use xlink:href="#DejaVuSans-52" transform="translate(27.783203 0.665625)"/>
      <use xlink:href="#DejaVuSans-4a" transform="translate(88.964844 0.665625)"/>
      <use xlink:href="#DejaVuSans-c9c" transform="translate(153.398438 41.965625) scale(0.7)"/>
      <use xlink:href="#DejaVuSans-14" transform="translate(212.050781 41.965625) scale(0.7)"/>
      <use xlink:href="#DejaVuSans-1d" transform="translate(259.321289 0.665625)"/>
      <use xlink:href="#DejaVuSans-3" transform="translate(293.012695 0.665625)"/>
      <use xlink:href="#DejaVuSans-Oblique-48" transform="translate(324.799805 0.665625)"/>
      <use xlink:href="#DejaVuSans-Oblique-34b" transform="translate(390.973138 41.965625) scale(0.7)"/>
      <use xlink:href="#DejaVuSans-21" transform="translate(457.555169 0.665625)"/>
      <use xlink:href="#DejaVuSans-13" transform="translate(560.826654 0.665625)"/>
     </g>
    </g>
   </g>
  </g>
  <g id="axes_2">
   <g id="patch_5">
    <path d="M 343.421712 207.525437 
L 587.850043 207.525437 
L 587.850043 20.418516 
L 343.421712 20.418516 
L 343.421712 207.525437 
z
" style="fill: none"/>
   </g>
   <g id="patch_6">
    <path d="M 354.53209 207.525437 
L 433.379939 207.525437 
L 433.379939 42.431095 
L 354.53209 42.431095 
z
" clip-path="url(#p1607b4a9c8)" style="fill: #2f6f9f"/>
   </g>
   <g id="patch_7">
    <path d="M 497.891815 207.525437 
L 576.739664 207.525437 
L 576.739664 124.978266 
L 497.891815 124.978266 
z
" clip-path="url(#p1607b4a9c8)" style="fill: #c1531f"/>
   </g>
   <g id="matplotlib.axis_3">
    <g id="xtick_6">
     <g id="line2d_31">
      <g>
       <use xlink:href="#m208339d32b" x="393.956015" y="207.525437" style="fill: #26323f; stroke: #26323f; stroke-width: 0.8"/>
      </g>
     </g>
     <g id="text_18">
      <!-- District A -->
      <g style="fill: #26323f" transform="translate(368.692108 222.883718) scale(0.11 -0.11)">
       <defs>
        <path id="DejaVuSans-27" d="M 1259 4147 
L 1259 519 
L 2022 519 
Q 2988 519 3436 956 
Q 3884 1394 3884 2338 
Q 3884 3275 3436 3711 
Q 2988 4147 2022 4147 
L 1259 4147 
z
M 628 4666 
L 1925 4666 
Q 3281 4666 3915 4102 
Q 4550 3538 4550 2338 
Q 4550 1131 3912 565 
Q 3275 0 1925 0 
L 628 0 
L 628 4666 
z
" transform="scale(0.015625)"/>
        <path id="DejaVuSans-24" d="M 2188 4044 
L 1331 1722 
L 3047 1722 
L 2188 4044 
z
M 1831 4666 
L 2547 4666 
L 4325 0 
L 3669 0 
L 3244 1197 
L 1141 1197 
L 716 0 
L 50 0 
L 1831 4666 
z
" transform="scale(0.015625)"/>
       </defs>
       <use xlink:href="#DejaVuSans-27"/>
       <use xlink:href="#DejaVuSans-4c" transform="translate(77 0)"/>
       <use xlink:href="#DejaVuSans-56" transform="translate(104.78125 0)"/>
       <use xlink:href="#DejaVuSans-57" transform="translate(156.875 0)"/>
       <use xlink:href="#DejaVuSans-55" transform="translate(196.078125 0)"/>
       <use xlink:href="#DejaVuSans-4c" transform="translate(237.1875 0)"/>
       <use xlink:href="#DejaVuSans-46" transform="translate(264.96875 0)"/>
       <use xlink:href="#DejaVuSans-57" transform="translate(319.953125 0)"/>
       <use xlink:href="#DejaVuSans-3" transform="translate(359.15625 0)"/>
       <use xlink:href="#DejaVuSans-24" transform="translate(390.9375 0)"/>
      </g>
     </g>
    </g>
    <g id="xtick_7">
     <g id="line2d_32">
      <g>
       <use xlink:href="#m208339d32b" x="537.31574" y="207.525437" style="fill: #26323f; stroke: #26323f; stroke-width: 0.8"/>
      </g>
     </g>
     <g id="text_19">
      <!-- District B -->
      <g style="fill: #26323f" transform="translate(512.040661 222.883718) scale(0.11 -0.11)">
       <defs>
        <path id="DejaVuSans-25" d="M 1259 2228 
L 1259 519 
L 2272 519 
Q 2781 519 3026 730 
Q 3272 941 3272 1375 
Q 3272 1813 3026 2020 
Q 2781 2228 2272 2228 
L 1259 2228 
z
M 1259 4147 
L 1259 2741 
L 2194 2741 
Q 2656 2741 2882 2914 
Q 3109 3088 3109 3444 
Q 3109 3797 2882 3972 
Q 2656 4147 2194 4147 
L 1259 4147 
z
M 628 4666 
L 2241 4666 
Q 2963 4666 3353 4366 
Q 3744 4066 3744 3513 
Q 3744 3084 3544 2831 
Q 3344 2578 2956 2516 
Q 3422 2416 3680 2098 
Q 3938 1781 3938 1306 
Q 3938 681 3513 340 
Q 3088 0 2303 0 
L 628 0 
L 628 4666 
z
" transform="scale(0.015625)"/>
       </defs>
       <use xlink:href="#DejaVuSans-27"/>
       <use xlink:href="#DejaVuSans-4c" transform="translate(77 0)"/>
       <use xlink:href="#DejaVuSans-56" transform="translate(104.78125 0)"/>
       <use xlink:href="#DejaVuSans-57" transform="translate(156.875 0)"/>
       <use xlink:href="#DejaVuSans-55" transform="translate(196.078125 0)"/>
       <use xlink:href="#DejaVuSans-4c" transform="translate(237.1875 0)"/>
       <use xlink:href="#DejaVuSans-46" transform="translate(264.96875 0)"/>
       <use xlink:href="#DejaVuSans-57" transform="translate(319.953125 0)"/>
       <use xlink:href="#DejaVuSans-3" transform="translate(359.15625 0)"/>
       <use xlink:href="#DejaVuSans-25" transform="translate(390.9375 0)"/>
      </g>
     </g>
    </g>
   </g>
   <g id="matplotlib.axis_4">
    <g id="ytick_7">
     <g id="line2d_33">
      <path d="M 343.421712 207.525437 
L 587.850043 207.525437 
" clip-path="url(#p1607b4a9c8)" style="fill: none; stroke: #d8dee4; stroke-width: 0.6; stroke-linecap: square"/>
     </g>
     <g id="line2d_34">
      <g>
       <use xlink:href="#m750ed48b41" x="343.421712" y="207.525437" style="fill: #26323f; stroke: #26323f; stroke-width: 0.8"/>
      </g>
     </g>
     <g id="text_20">
      <!-- 0.0 -->
      <g style="fill: #26323f" transform="translate(318.928274 211.704148) scale(0.11 -0.11)">
       <defs>
        <path id="DejaVuSans-11" d="M 684 794 
L 1344 794 
L 1344 0 
L 684 0 
L 684 794 
z
" transform="scale(0.015625)"/>
       </defs>
       <use xlink:href="#DejaVuSans-13"/>
       <use xlink:href="#DejaVuSans-11" transform="translate(63.625 0)"/>
       <use xlink:href="#DejaVuSans-13" transform="translate(95.40625 0)"/>
      </g>
     </g>
    </g>
    <g id="ytick_8">
     <g id="line2d_35">
      <path d="M 343.421712 180.009713 
L 587.850043 180.009713 
" clip-path="url(#p1607b4a9c8)" style="fill: none; stroke: #d8dee4; stroke-width: 0.6; stroke-linecap: square"/>
     </g>
     <g id="line2d_36">
      <g>
       <use xlink:href="#m750ed48b41" x="343.421712" y="180.009713" style="fill: #26323f; stroke: #26323f; stroke-width: 0.8"/>
      </g>
     </g>
     <g id="text_21">
      <!-- 0.5 -->
      <g style="fill: #26323f" transform="translate(318.928274 184.188424) scale(0.11 -0.11)">
       <defs>
        <path id="DejaVuSans-18" d="M 691 4666 
L 3169 4666 
L 3169 4134 
L 1269 4134 
L 1269 2991 
Q 1406 3038 1543 3061 
Q 1681 3084 1819 3084 
Q 2600 3084 3056 2656 
Q 3513 2228 3513 1497 
Q 3513 744 3044 326 
Q 2575 -91 1722 -91 
Q 1428 -91 1123 -41 
Q 819 9 494 109 
L 494 744 
Q 775 591 1075 516 
Q 1375 441 1709 441 
Q 2250 441 2565 725 
Q 2881 1009 2881 1497 
Q 2881 1984 2565 2268 
Q 2250 2553 1709 2553 
Q 1456 2553 1204 2497 
Q 953 2441 691 2322 
L 691 4666 
z
" transform="scale(0.015625)"/>
       </defs>
       <use xlink:href="#DejaVuSans-13"/>
       <use xlink:href="#DejaVuSans-11" transform="translate(63.625 0)"/>
       <use xlink:href="#DejaVuSans-18" transform="translate(95.40625 0)"/>
      </g>
     </g>
    </g>
    <g id="ytick_9">
     <g id="line2d_37">
      <path d="M 343.421712 152.493989 
L 587.850043 152.493989 
" clip-path="url(#p1607b4a9c8)" style="fill: none; stroke: #d8dee4; stroke-width: 0.6; stroke-linecap: square"/>
     </g>
     <g id="line2d_38">
      <g>
       <use xlink:href="#m750ed48b41" x="343.421712" y="152.493989" style="fill: #26323f; stroke: #26323f; stroke-width: 0.8"/>
      </g>
     </g>
     <g id="text_22">
      <!-- 1.0 -->
      <g style="fill: #26323f" transform="translate(318.928274 156.6727) scale(0.11 -0.11)">
       <use xlink:href="#DejaVuSans-14"/>
       <use xlink:href="#DejaVuSans-11" transform="translate(63.625 0)"/>
       <use xlink:href="#DejaVuSans-13" transform="translate(95.40625 0)"/>
      </g>
     </g>
    </g>
    <g id="ytick_10">
     <g id="line2d_39">
      <path d="M 343.421712 124.978266 
L 587.850043 124.978266 
" clip-path="url(#p1607b4a9c8)" style="fill: none; stroke: #d8dee4; stroke-width: 0.6; stroke-linecap: square"/>
     </g>
     <g id="line2d_40">
      <g>
       <use xlink:href="#m750ed48b41" x="343.421712" y="124.978266" style="fill: #26323f; stroke: #26323f; stroke-width: 0.8"/>
      </g>
     </g>
     <g id="text_23">
      <!-- 1.5 -->
      <g style="fill: #26323f" transform="translate(318.928274 129.156977) scale(0.11 -0.11)">
       <use xlink:href="#DejaVuSans-14"/>
       <use xlink:href="#DejaVuSans-11" transform="translate(63.625 0)"/>
       <use xlink:href="#DejaVuSans-18" transform="translate(95.40625 0)"/>
      </g>
     </g>
    </g>
    <g id="ytick_11">
     <g id="line2d_41">
      <path d="M 343.421712 97.462542 
L 587.850043 97.462542 
" clip-path="url(#p1607b4a9c8)" style="fill: none; stroke: #d8dee4; stroke-width: 0.6; stroke-linecap: square"/>
     </g>
     <g id="line2d_42">
      <g>
       <use xlink:href="#m750ed48b41" x="343.421712" y="97.462542" style="fill: #26323f; stroke: #26323f; stroke-width: 0.8"/>
      </g>
     </g>
     <g id="text_24">
      <!-- 2.0 -->
      <g style="fill: #26323f" transform="translate(318.928274 101.641253) scale(0.11 -0.11)">
       <use xlink:href="#DejaVuSans-15"/>
       <use xlink:href="#DejaVuSans-11" transform="translate(63.625 0)"/>
       <use xlink:href="#DejaVuSans-13" transform="translate(95.40625 0)"/>
      </g>
     </g>
    </g>
    <g id="ytick_12">
     <g id="line2d_43">
      <path d="M 343.421712 69.946818 
L 587.850043 69.946818 
" clip-path="url(#p1607b4a9c8)" style="fill: none; stroke: #d8dee4; stroke-width: 0.6; stroke-linecap: square"/>
     </g>
     <g id="line2d_44">
      <g>
       <use xlink:href="#m750ed48b41" x="343.421712" y="69.946818" style="fill: #26323f; stroke: #26323f; stroke-width: 0.8"/>
      </g>
     </g>
     <g id="text_25">
      <!-- 2.5 -->
      <g style="fill: #26323f" transform="translate(318.928274 74.125529) scale(0.11 -0.11)">
       <use xlink:href="#DejaVuSans-15"/>
       <use xlink:href="#DejaVuSans-11" transform="translate(63.625 0)"/>
       <use xlink:href="#DejaVuSans-18" transform="translate(95.40625 0)"/>
      </g>
     </g>
    </g>
    <g id="ytick_13">
     <g id="line2d_45">
      <path d="M 343.421712 42.431095 
L 587.850043 42.431095 
" clip-path="url(#p1607b4a9c8)" style="fill: none; stroke: #d8dee4; stroke-width: 0.6; stroke-linecap: square"/>
     </g>
     <g id="line2d_46">
      <g>
       <use xlink:href="#m750ed48b41" x="343.421712" y="42.431095" style="fill: #26323f; stroke: #26323f; stroke-width: 0.8"/>
      </g>
     </g>
     <g id="text_26">
      <!-- 3.0 -->
      <g style="fill: #26323f" transform="translate(318.928274 46.609806) scale(0.11 -0.11)">
       <use xlink:href="#DejaVuSans-16"/>
       <use xlink:href="#DejaVuSans-11" transform="translate(63.625 0)"/>
       <use xlink:href="#DejaVuSans-13" transform="translate(95.40625 0)"/>
      </g>
     </g>
    </g>
    <g id="text_27">
     <!-- incidence rate (per 1000) -->
     <g style="fill: #26323f" transform="translate(312.285696 184.149398) rotate(-90) scale(0.11 -0.11)">
      <use xlink:href="#DejaVuSans-4c"/>
      <use xlink:href="#DejaVuSans-51" transform="translate(27.78125 0)"/>
      <use xlink:href="#DejaVuSans-46" transform="translate(91.15625 0)"/>
      <use xlink:href="#DejaVuSans-4c" transform="translate(146.140625 0)"/>
      <use xlink:href="#DejaVuSans-47" transform="translate(173.921875 0)"/>
      <use xlink:href="#DejaVuSans-48" transform="translate(237.40625 0)"/>
      <use xlink:href="#DejaVuSans-51" transform="translate(298.9375 0)"/>
      <use xlink:href="#DejaVuSans-46" transform="translate(362.3125 0)"/>
      <use xlink:href="#DejaVuSans-48" transform="translate(417.296875 0)"/>
      <use xlink:href="#DejaVuSans-3" transform="translate(478.828125 0)"/>
      <use xlink:href="#DejaVuSans-55" transform="translate(510.609375 0)"/>
      <use xlink:href="#DejaVuSans-44" transform="translate(551.71875 0)"/>
      <use xlink:href="#DejaVuSans-57" transform="translate(613 0)"/>
      <use xlink:href="#DejaVuSans-48" transform="translate(652.203125 0)"/>
      <use xlink:href="#DejaVuSans-3" transform="translate(713.734375 0)"/>
      <use xlink:href="#DejaVuSans-b" transform="translate(745.515625 0)"/>
      <use xlink:href="#DejaVuSans-53" transform="translate(784.53125 0)"/>
      <use xlink:href="#DejaVuSans-48" transform="translate(848.015625 0)"/>
      <use xlink:href="#DejaVuSans-55" transform="translate(909.546875 0)"/>
      <use xlink:href="#DejaVuSans-3" transform="translate(950.65625 0)"/>
      <use xlink:href="#DejaVuSans-14" transform="translate(982.4375 0)"/>
      <use xlink:href="#DejaVuSans-13" transform="translate(1046.0625 0)"/>
      <use xlink:href="#DejaVuSans-13" transform="translate(1109.6875 0)"/>
      <use xlink:href="#DejaVuSans-13" transform="translate(1173.3125 0)"/>
      <use xlink:href="#DejaVuSans-c" transform="translate(1236.9375 0)"/>
     </g>
    </g>
   </g>
   <g id="patch_8">
    <path d="M 343.421712 207.525437 
L 343.421712 20.418516 
" style="fill: none; stroke: #26323f; stroke-width: 0.9; stroke-linejoin: miter; stroke-linecap: square"/>
   </g>
   <g id="patch_9">
    <path d="M 343.421712 207.525437 
L 587.850043 207.525437 
" style="fill: none; stroke: #26323f; stroke-width: 0.9; stroke-linejoin: miter; stroke-linecap: square"/>
   </g>
   <g id="text_28">
    <!-- 3.0 / 1000 -->
    <g style="fill: #26323f" transform="translate(370.970858 38.431095) scale(0.09 -0.09)">
     <defs>
      <path id="DejaVuSans-12" d="M 1625 4666 
L 2156 4666 
L 531 -594 
L 0 -594 
L 1625 4666 
z
" transform="scale(0.015625)"/>
     </defs>
     <use xlink:href="#DejaVuSans-16"/>
     <use xlink:href="#DejaVuSans-11" transform="translate(63.625 0)"/>
     <use xlink:href="#DejaVuSans-13" transform="translate(95.40625 0)"/>
     <use xlink:href="#DejaVuSans-3" transform="translate(159.03125 0)"/>
     <use xlink:href="#DejaVuSans-12" transform="translate(190.8125 0)"/>
     <use xlink:href="#DejaVuSans-3" transform="translate(224.5 0)"/>
     <use xlink:href="#DejaVuSans-14" transform="translate(256.28125 0)"/>
     <use xlink:href="#DejaVuSans-13" transform="translate(319.90625 0)"/>
     <use xlink:href="#DejaVuSans-13" transform="translate(383.53125 0)"/>
     <use xlink:href="#DejaVuSans-13" transform="translate(447.15625 0)"/>
    </g>
   </g>
   <g id="text_29">
    <!-- 30 cases -->
    <g style="fill: #ffffff" transform="translate(376.756405 188.90555) scale(0.078 -0.078)">
     <use xlink:href="#DejaVuSans-16"/>
     <use xlink:href="#DejaVuSans-13" transform="translate(63.625 0)"/>
     <use xlink:href="#DejaVuSans-3" transform="translate(127.25 0)"/>
     <use xlink:href="#DejaVuSans-46" transform="translate(159.03125 0)"/>
     <use xlink:href="#DejaVuSans-44" transform="translate(214.015625 0)"/>
     <use xlink:href="#DejaVuSans-56" transform="translate(275.296875 0)"/>
     <use xlink:href="#DejaVuSans-48" transform="translate(327.390625 0)"/>
     <use xlink:href="#DejaVuSans-56" transform="translate(388.921875 0)"/>
    </g>
    <!-- pop 10,000 -->
    <g style="fill: #ffffff" transform="translate(371.732108 198.267073) scale(0.078 -0.078)">
     <use xlink:href="#DejaVuSans-53"/>
     <use xlink:href="#DejaVuSans-52" transform="translate(63.484375 0)"/>
     <use xlink:href="#DejaVuSans-53" transform="translate(124.671875 0)"/>
     <use xlink:href="#DejaVuSans-3" transform="translate(188.15625 0)"/>
     <use xlink:href="#DejaVuSans-14" transform="translate(219.9375 0)"/>
     <use xlink:href="#DejaVuSans-13" transform="translate(283.5625 0)"/>
     <use xlink:href="#DejaVuSans-f" transform="translate(347.1875 0)"/>
     <use xlink:href="#DejaVuSans-13" transform="translate(378.96875 0)"/>
     <use xlink:href="#DejaVuSans-13" transform="translate(442.59375 0)"/>
     <use xlink:href="#DejaVuSans-13" transform="translate(506.21875 0)"/>
    </g>
   </g>
   <g id="text_30">
    <!-- 1.5 / 1000 -->
    <g style="fill: #26323f" transform="translate(514.330583 120.978266) scale(0.09 -0.09)">
     <use xlink:href="#DejaVuSans-14"/>
     <use xlink:href="#DejaVuSans-11" transform="translate(63.625 0)"/>
     <use xlink:href="#DejaVuSans-18" transform="translate(95.40625 0)"/>
     <use xlink:href="#DejaVuSans-3" transform="translate(159.03125 0)"/>
     <use xlink:href="#DejaVuSans-12" transform="translate(190.8125 0)"/>
     <use xlink:href="#DejaVuSans-3" transform="translate(224.5 0)"/>
     <use xlink:href="#DejaVuSans-14" transform="translate(256.28125 0)"/>
     <use xlink:href="#DejaVuSans-13" transform="translate(319.90625 0)"/>
     <use xlink:href="#DejaVuSans-13" transform="translate(383.53125 0)"/>
     <use xlink:href="#DejaVuSans-13" transform="translate(447.15625 0)"/>
    </g>
   </g>
   <g id="text_31">
    <!-- 60 cases -->
    <g style="fill: #ffffff" transform="translate(520.11613 188.90555) scale(0.078 -0.078)">
     <defs>
      <path id="DejaVuSans-19" d="M 2113 2584 
Q 1688 2584 1439 2293 
Q 1191 2003 1191 1497 
Q 1191 994 1439 701 
Q 1688 409 2113 409 
Q 2538 409 2786 701 
Q 3034 994 3034 1497 
Q 3034 2003 2786 2293 
Q 2538 2584 2113 2584 
z
M 3366 4563 
L 3366 3988 
Q 3128 4100 2886 4159 
Q 2644 4219 2406 4219 
Q 1781 4219 1451 3797 
Q 1122 3375 1075 2522 
Q 1259 2794 1537 2939 
Q 1816 3084 2150 3084 
Q 2853 3084 3261 2657 
Q 3669 2231 3669 1497 
Q 3669 778 3244 343 
Q 2819 -91 2113 -91 
Q 1303 -91 875 529 
Q 447 1150 447 2328 
Q 447 3434 972 4092 
Q 1497 4750 2381 4750 
Q 2619 4750 2861 4703 
Q 3103 4656 3366 4563 
z
" transform="scale(0.015625)"/>
     </defs>
     <use xlink:href="#DejaVuSans-19"/>
     <use xlink:href="#DejaVuSans-13" transform="translate(63.625 0)"/>
     <use xlink:href="#DejaVuSans-3" transform="translate(127.25 0)"/>
     <use xlink:href="#DejaVuSans-46" transform="translate(159.03125 0)"/>
     <use xlink:href="#DejaVuSans-44" transform="translate(214.015625 0)"/>
     <use xlink:href="#DejaVuSans-56" transform="translate(275.296875 0)"/>
     <use xlink:href="#DejaVuSans-48" transform="translate(327.390625 0)"/>
     <use xlink:href="#DejaVuSans-56" transform="translate(388.921875 0)"/>
    </g>
    <!-- pop 40,000 -->
    <g style="fill: #ffffff" transform="translate(515.091833 198.267073) scale(0.078 -0.078)">
     <use xlink:href="#DejaVuSans-53"/>
     <use xlink:href="#DejaVuSans-52" transform="translate(63.484375 0)"/>
     <use xlink:href="#DejaVuSans-53" transform="translate(124.671875 0)"/>
     <use xlink:href="#DejaVuSans-3" transform="translate(188.15625 0)"/>
     <use xlink:href="#DejaVuSans-17" transform="translate(219.9375 0)"/>
     <use xlink:href="#DejaVuSans-13" transform="translate(283.5625 0)"/>
     <use xlink:href="#DejaVuSans-f" transform="translate(347.1875 0)"/>
     <use xlink:href="#DejaVuSans-13" transform="translate(378.96875 0)"/>
     <use xlink:href="#DejaVuSans-13" transform="translate(442.59375 0)"/>
     <use xlink:href="#DejaVuSans-13" transform="translate(506.21875 0)"/>
    </g>
   </g>
   <g id="patch_10">
    <path d="M 485.208918 81.454018 
Q 510.494275 102.574595 535.007367 123.050108 
" style="fill: none; stroke: #5b6b7a; stroke-width: 0.9; stroke-linecap: round"/>
    <path d="M 533.577134 119.770712 
L 535.007367 123.050108 
L 531.525711 122.226657 
" style="fill: none; stroke: #5b6b7a; stroke-width: 0.9; stroke-linecap: round"/>
   </g>
   <g id="text_32">
    <!-- more raw cases, -->
    <g style="fill: #26323f" transform="translate(436.963932 65.847776) scale(0.08 -0.08)">
     <defs>
      <path id="DejaVuSans-5a" d="M 269 3500 
L 844 3500 
L 1563 769 
L 2278 3500 
L 2956 3500 
L 3675 769 
L 4391 3500 
L 4966 3500 
L 4050 0 
L 3372 0 
L 2619 2869 
L 1863 0 
L 1184 0 
L 269 3500 
z
" transform="scale(0.015625)"/>
     </defs>
     <use xlink:href="#DejaVuSans-50"/>
     <use xlink:href="#DejaVuSans-52" transform="translate(97.40625 0)"/>
     <use xlink:href="#DejaVuSans-55" transform="translate(158.59375 0)"/>
     <use xlink:href="#DejaVuSans-48" transform="translate(197.5 0)"/>
     <use xlink:href="#DejaVuSans-3" transform="translate(259.03125 0)"/>
     <use xlink:href="#DejaVuSans-55" transform="translate(290.8125 0)"/>
     <use xlink:href="#DejaVuSans-44" transform="translate(331.921875 0)"/>
     <use xlink:href="#DejaVuSans-5a" transform="translate(393.203125 0)"/>
     <use xlink:href="#DejaVuSans-3" transform="translate(474.984375 0)"/>
     <use xlink:href="#DejaVuSans-46" transform="translate(506.765625 0)"/>
     <use xlink:href="#DejaVuSans-44" transform="translate(561.75 0)"/>
     <use xlink:href="#DejaVuSans-56" transform="translate(623.03125 0)"/>
     <use xlink:href="#DejaVuSans-48" transform="translate(675.125 0)"/>
     <use xlink:href="#DejaVuSans-56" transform="translate(736.65625 0)"/>
     <use xlink:href="#DejaVuSans-f" transform="translate(788.75 0)"/>
    </g>
    <!-- but half the rate -->
    <g style="fill: #26323f" transform="translate(436.963932 75.449963) scale(0.08 -0.08)">
     <defs>
      <path id="DejaVuSans-45" d="M 3116 1747 
Q 3116 2381 2855 2742 
Q 2594 3103 2138 3103 
Q 1681 3103 1420 2742 
Q 1159 2381 1159 1747 
Q 1159 1113 1420 752 
Q 1681 391 2138 391 
Q 2594 391 2855 752 
Q 3116 1113 3116 1747 
z
M 1159 2969 
Q 1341 3281 1617 3432 
Q 1894 3584 2278 3584 
Q 2916 3584 3314 3078 
Q 3713 2572 3713 1747 
Q 3713 922 3314 415 
Q 2916 -91 2278 -91 
Q 1894 -91 1617 61 
Q 1341 213 1159 525 
L 1159 0 
L 581 0 
L 581 4863 
L 1159 4863 
L 1159 2969 
z
" transform="scale(0.015625)"/>
      <path id="DejaVuSans-58" d="M 544 1381 
L 544 3500 
L 1119 3500 
L 1119 1403 
Q 1119 906 1312 657 
Q 1506 409 1894 409 
Q 2359 409 2629 706 
Q 2900 1003 2900 1516 
L 2900 3500 
L 3475 3500 
L 3475 0 
L 2900 0 
L 2900 538 
Q 2691 219 2414 64 
Q 2138 -91 1772 -91 
Q 1169 -91 856 284 
Q 544 659 544 1381 
z
M 1991 3584 
L 1991 3584 
z
" transform="scale(0.015625)"/>
      <path id="DejaVuSans-49" d="M 2375 4863 
L 2375 4384 
L 1825 4384 
Q 1516 4384 1395 4259 
Q 1275 4134 1275 3809 
L 1275 3500 
L 2222 3500 
L 2222 3053 
L 1275 3053 
L 1275 0 
L 697 0 
L 697 3053 
L 147 3053 
L 147 3500 
L 697 3500 
L 697 3744 
Q 697 4328 969 4595 
Q 1241 4863 1831 4863 
L 2375 4863 
z
" transform="scale(0.015625)"/>
     </defs>
     <use xlink:href="#DejaVuSans-45"/>
     <use xlink:href="#DejaVuSans-58" transform="translate(63.484375 0)"/>
     <use xlink:href="#DejaVuSans-57" transform="translate(126.859375 0)"/>
     <use xlink:href="#DejaVuSans-3" transform="translate(166.0625 0)"/>
     <use xlink:href="#DejaVuSans-4b" transform="translate(197.84375 0)"/>
     <use xlink:href="#DejaVuSans-44" transform="translate(261.21875 0)"/>
     <use xlink:href="#DejaVuSans-4f" transform="translate(322.5 0)"/>
     <use xlink:href="#DejaVuSans-49" transform="translate(350.28125 0)"/>
     <use xlink:href="#DejaVuSans-3" transform="translate(385.484375 0)"/>
     <use xlink:href="#DejaVuSans-57" transform="translate(417.265625 0)"/>
     <use xlink:href="#DejaVuSans-4b" transform="translate(456.46875 0)"/>
     <use xlink:href="#DejaVuSans-48" transform="translate(519.84375 0)"/>
     <use xlink:href="#DejaVuSans-3" transform="translate(581.375 0)"/>
     <use xlink:href="#DejaVuSans-55" transform="translate(613.15625 0)"/>
     <use xlink:href="#DejaVuSans-44" transform="translate(654.265625 0)"/>
     <use xlink:href="#DejaVuSans-57" transform="translate(715.546875 0)"/>
     <use xlink:href="#DejaVuSans-48" transform="translate(754.75 0)"/>
    </g>
   </g>
   <g id="text_33">
    <!-- Why the population offset matters -->
    <g style="fill: #26323f" transform="translate(383.957401 14.418516) scale(0.095 -0.095)">
     <defs>
      <path id="DejaVuSans-3a" d="M 213 4666 
L 850 4666 
L 1831 722 
L 2809 4666 
L 3519 4666 
L 4500 722 
L 5478 4666 
L 6119 4666 
L 4947 0 
L 4153 0 
L 3169 4050 
L 2175 0 
L 1381 0 
L 213 4666 
z
" transform="scale(0.015625)"/>
      <path id="DejaVuSans-13ae" d="M 4531 4863 
L 4531 4384 
L 3981 4384 
Q 3672 4384 3551 4259 
Q 3431 4134 3431 3809 
L 3431 3500 
L 4378 3500 
L 4378 3053 
L 3431 3053 
L 3431 0 
L 2853 0 
L 2853 3053 
L 1275 3053 
L 1275 0 
L 697 0 
L 697 3053 
L 147 3053 
L 147 3500 
L 697 3500 
L 697 3744 
Q 697 4328 969 4595 
Q 1241 4863 1831 4863 
L 2375 4863 
L 2375 4384 
L 1825 4384 
Q 1516 4384 1394 4259 
Q 1275 4134 1275 3809 
L 1275 3500 
L 2853 3500 
L 2853 3744 
Q 2853 4328 3125 4595 
Q 3397 4863 3988 4863 
L 4531 4863 
z
" transform="scale(0.015625)"/>
     </defs>
     <use xlink:href="#DejaVuSans-3a"/>
     <use xlink:href="#DejaVuSans-4b" transform="translate(98.875 0)"/>
     <use xlink:href="#DejaVuSans-5c" transform="translate(162.25 0)"/>
     <use xlink:href="#DejaVuSans-3" transform="translate(221.4375 0)"/>
     <use xlink:href="#DejaVuSans-57" transform="translate(253.21875 0)"/>
     <use xlink:href="#DejaVuSans-4b" transform="translate(292.421875 0)"/>
     <use xlink:href="#DejaVuSans-48" transform="translate(355.796875 0)"/>
     <use xlink:href="#DejaVuSans-3" transform="translate(417.328125 0)"/>
     <use xlink:href="#DejaVuSans-53" transform="translate(449.109375 0)"/>
     <use xlink:href="#DejaVuSans-52" transform="translate(512.59375 0)"/>
     <use xlink:href="#DejaVuSans-53" transform="translate(573.78125 0)"/>
     <use xlink:href="#DejaVuSans-58" transform="translate(637.265625 0)"/>
     <use xlink:href="#DejaVuSans-4f" transform="translate(700.640625 0)"/>
     <use xlink:href="#DejaVuSans-44" transform="translate(728.421875 0)"/>
     <use xlink:href="#DejaVuSans-57" transform="translate(789.703125 0)"/>
     <use xlink:href="#DejaVuSans-4c" transform="translate(828.90625 0)"/>
     <use xlink:href="#DejaVuSans-52" transform="translate(856.6875 0)"/>
     <use xlink:href="#DejaVuSans-51" transform="translate(917.875 0)"/>
     <use xlink:href="#DejaVuSans-3" transform="translate(981.25 0)"/>
     <use xlink:href="#DejaVuSans-52" transform="translate(1013.03125 0)"/>
     <use xlink:href="#DejaVuSans-13ae" transform="translate(1074.21875 0)"/>
     <use xlink:href="#DejaVuSans-56" transform="translate(1143.109375 0)"/>
     <use xlink:href="#DejaVuSans-48" transform="translate(1195.203125 0)"/>
     <use xlink:href="#DejaVuSans-57" transform="translate(1256.734375 0)"/>
     <use xlink:href="#DejaVuSans-3" transform="translate(1295.9375 0)"/>
     <use xlink:href="#DejaVuSans-50" transform="translate(1327.71875 0)"/>
     <use xlink:href="#DejaVuSans-44" transform="translate(1425.125 0)"/>
     <use xlink:href="#DejaVuSans-57" transform="translate(1486.40625 0)"/>
     <use xlink:href="#DejaVuSans-57" transform="translate(1525.609375 0)"/>
     <use xlink:href="#DejaVuSans-48" transform="translate(1564.8125 0)"/>
     <use xlink:href="#DejaVuSans-55" transform="translate(1626.34375 0)"/>
     <use xlink:href="#DejaVuSans-56" transform="translate(1667.453125 0)"/>
    </g>
   </g>
  </g>
 </g>
 <defs>
  <clipPath id="p847b4c0000">
   <rect x="47.288984" y="20.418516" width="244.428331" height="187.106921"/>
  </clipPath>
  <clipPath id="p1607b4a9c8">
   <rect x="343.421712" y="20.418516" width="244.428331" height="187.106921"/>
  </clipPath>
 </defs>
</svg>
