<?xml version="1.0" encoding="utf-8" standalone="no"?>
<!DOCTYPE svg PUBLIC "-//W3C//DTD SVG 1.1//EN"
  "http://www.w3.org/Graphics/SVG/1.1/DTD/svg11.dtd">
<svg xmlns:xlink="http://www.w3.org/1999/xlink" width="505.342656pt" height="287.173375pt" viewBox="0 0 505.342656 287.173375" xmlns="http://www.w3.org/2000/svg" version="1.1">
 <metadata>
  <rdf:RDF xmlns:dc="http://purl.org/dc/elements/1.1/" xmlns:cc="http://creativecommons.org/ns#" xmlns:rdf="http://www.w3.org/1999/02/22-rdf-syntax-ns#">
   <cc:Work>
    <dc:type rdf:resource="http://purl.org/dc/dcmitype/StillImage"/>
    <dc:date>2026-07-03T18:14:54.493668</dc:date>
    <dc:format>image/svg+xml</dc:format>
    <dc:creator>
     <cc:Agent>
      <dc:title>Matplotlib v3.11.0, https://matplotlib.org/</dc:title>
     </cc:Agent>
    </dc:creator>
   </cc:Work>
  </rdf:RDF>
 </metadata>
 <defs>
  <style type="text/css">*{stroke-linejoin: round; stroke-linecap: butt}</style>
 </defs>
 <g id="figure_1">
  <g id="patch_1">
   <path d="M -0 287.173375 
L 505.342656 287.173375 
L 505.342656 0 
L -0 0 
L -0 287.173375 
z
" style="fill: none"/>
  </g>
  <g id="axes_1">
   <g id="patch_2">
    <path d="M 118.702656 244.989938 
L 498.142656 244.989938 
L 498.142656 23.229938 
L 118.702656 23.229938 
L 118.702656 244.989938 
z
" style="fill: none"/>
   </g>
   <g id="patch_3">
    <path d="M -39878.734309 52.190904 
L 137.805386 52.190904 
L 137.805386 33.309938 
L -39878.734309 33.309938 
z
" clip-path="url(#pc80eb8f7d5)" style="fill: #2f6f9f"/>
   </g>
   <g id="patch_4">
    <path d="M -39878.734309 82.644076 
L 158.740131 82.644076 
L 158.740131 63.76311 
L -39878.734309 63.76311 
z
" clip-path="url(#pc80eb8f7d5)" style="fill: #3f8f5b"/>
   </g>
   <g id="patch_5">
    <path d="M -39878.734309 113.097249 
L 182.845092 113.097249 
L 182.845092 94.216282 
L -39878.734309 94.216282 
z
" clip-path="url(#pc80eb8f7d5)" style="fill: #3f8f5b"/>
   </g>
   <g id="patch_6">
    <path d="M -39878.734309 143.550421 
L 205.827854 143.550421 
L 205.827854 124.669454 
L -39878.734309 124.669454 
z
" clip-path="url(#pc80eb8f7d5)" style="fill: #3f8f5b"/>
   </g>
   <g id="patch_7">
    <path d="M -39878.734309 174.003593 
L 238.81508 174.003593 
L 238.81508 155.122626 
L -39878.734309 155.122626 
z
" clip-path="url(#pc80eb8f7d5)" style="fill: #b0842f"/>
   </g>
   <g id="patch_8">
    <path d="M -39878.734309 204.456765 
L 358.927503 204.456765 
L 358.927503 185.575799 
L -39878.734309 185.575799 
z
" clip-path="url(#pc80eb8f7d5)" style="fill: #c1531f"/>
   </g>
   <g id="patch_9">
    <path d="M -39878.734309 234.909938 
L 439.002452 234.909938 
L 439.002452 216.028971 
L -39878.734309 216.028971 
z
" clip-path="url(#pc80eb8f7d5)" style="fill: #b0332f"/>
   </g>
   <g id="matplotlib.axis_1">
    <g id="xtick_1">
     <g id="line2d_1">
      <path d="M 158.740131 244.989938 
L 158.740131 23.229938 
" clip-path="url(#pc80eb8f7d5)" style="fill: none; stroke: #d8dee4; stroke-width: 0.6; stroke-linecap: square"/>
     </g>
     <g id="line2d_2">
      <defs>
       <path id="mef88e2de99" d="M 0 0 
L 0 3.5 
" style="stroke: #26323f; stroke-width: 0.8"/>
      </defs>
      <g>
       <use xlink:href="#mef88e2de99" x="158.740131" y="244.989938" style="fill: #26323f; stroke: #26323f; stroke-width: 0.8"/>
      </g>
     </g>
     <g id="text_1">
      <!-- $\mathdefault{10^{0}}$ -->
      <g style="fill: #26323f" transform="translate(149.060131 262.329938) scale(0.11 -0.11)">
       <defs>
        <path id="DejaVuSans-14" d="M 794 531 
L 1825 531 
L 1825 4091 
L 703 3866 
L 703 4441 
L 1819 4666 
L 2450 4666 
L 2450 531 
L 3481 531 
L 3481 0 
L 794 0 
L 794 531 
z
" transform="scale(0.015625)"/>
        <path id="DejaVuSans-13" d="M 2034 4250 
Q 1547 4250 1301 3770 
Q 1056 3291 1056 2328 
Q 1056 1369 1301 889 
Q 1547 409 2034 409 
Q 2525 409 2770 889 
Q 3016 1369 3016 2328 
Q 3016 3291 2770 3770 
Q 2525 4250 2034 4250 
z
M 2034 4750 
Q 2819 4750 3233 4129 
Q 3647 3509 3647 2328 
Q 3647 1150 3233 529 
Q 2819 -91 2034 -91 
Q 1250 -91 836 529 
Q 422 1150 422 2328 
Q 422 3509 836 4129 
Q 1250 4750 2034 4750 
z
" transform="scale(0.015625)"/>
       </defs>
       <use xlink:href="#DejaVuSans-14" transform="translate(0 0.746875)"/>
       <use xlink:href="#DejaVuSans-13" transform="translate(63.623047 0.746875)"/>
       <use xlink:href="#DejaVuSans-13" transform="translate(128.203125 42.046875) scale(0.7)"/>
      </g>
     </g>
    </g>
    <g id="xtick_2">
     <g id="line2d_3">
      <path d="M 238.81508 244.989938 
L 238.81508 23.229938 
" clip-path="url(#pc80eb8f7d5)" style="fill: none; stroke: #d8dee4; stroke-width: 0.6; stroke-linecap: square"/>
     </g>
     <g id="line2d_4">
      <g>
       <use xlink:href="#mef88e2de99" x="238.81508" y="244.989938" style="fill: #26323f; stroke: #26323f; stroke-width: 0.8"/>
      </g>
     </g>
     <g id="text_2">
      <!-- $\mathdefault{10^{2}}$ -->
      <g style="fill: #26323f" transform="translate(229.13508 262.329938) scale(0.11 -0.11)">
       <defs>
        <path id="DejaVuSans-15" d="M 1228 531 
L 3431 531 
L 3431 0 
L 469 0 
L 469 531 
Q 828 903 1448 1529 
Q 2069 2156 2228 2338 
Q 2531 2678 2651 2914 
Q 2772 3150 2772 3378 
Q 2772 3750 2511 3984 
Q 2250 4219 1831 4219 
Q 1534 4219 1204 4116 
Q 875 4013 500 3803 
L 500 4441 
Q 881 4594 1212 4672 
Q 1544 4750 1819 4750 
Q 2544 4750 2975 4387 
Q 3406 4025 3406 3419 
Q 3406 3131 3298 2873 
Q 3191 2616 2906 2266 
Q 2828 2175 2409 1742 
Q 1991 1309 1228 531 
z
" transform="scale(0.015625)"/>
       </defs>
       <use xlink:href="#DejaVuSans-14" transform="translate(0 0.746875)"/>
       <use xlink:href="#DejaVuSans-13" transform="translate(63.623047 0.746875)"/>
       <use xlink:href="#DejaVuSans-15" transform="translate(128.203125 42.046875) scale(0.7)"/>
      </g>
     </g>
    </g>
    <g id="xtick_3">
     <g id="line2d_5">
      <path d="M 318.890028 244.989938 
L 318.890028 23.229938 
" clip-path="url(#pc80eb8f7d5)" style="fill: none; stroke: #d8dee4; stroke-width: 0.6; stroke-linecap: square"/>
     </g>
     <g id="line2d_6">
      <g>
       <use xlink:href="#mef88e2de99" x="318.890028" y="244.989938" style="fill: #26323f; stroke: #26323f; stroke-width: 0.8"/>
      </g>
     </g>
     <g id="text_3">
      <!-- $\mathdefault{10^{4}}$ -->
      <g style="fill: #26323f" transform="translate(309.210028 262.219938) scale(0.11 -0.11)">
       <defs>
        <path id="DejaVuSans-17" d="M 2419 4116 
L 825 1625 
L 2419 1625 
L 2419 4116 
z
M 2253 4666 
L 3047 4666 
L 3047 1625 
L 3713 1625 
L 3713 1100 
L 3047 1100 
L 3047 0 
L 2419 0 
L 2419 1100 
L 313 1100 
L 313 1709 
L 2253 4666 
z
" transform="scale(0.015625)"/>
       </defs>
       <use xlink:href="#DejaVuSans-14" transform="translate(0 0.665625)"/>
       <use xlink:href="#DejaVuSans-13" transform="translate(63.623047 0.665625)"/>
       <use xlink:href="#DejaVuSans-17" transform="translate(128.203125 41.965625) scale(0.7)"/>
      </g>
     </g>
    </g>
    <g id="xtick_4">
     <g id="line2d_7">
      <path d="M 398.964977 244.989938 
L 398.964977 23.229938 
" clip-path="url(#pc80eb8f7d5)" style="fill: none; stroke: #d8dee4; stroke-width: 0.6; stroke-linecap: square"/>
     </g>
     <g id="line2d_8">
      <g>
       <use xlink:href="#mef88e2de99" x="398.964977" y="244.989938" style="fill: #26323f; stroke: #26323f; stroke-width: 0.8"/>
      </g>
     </g>
     <g id="text_4">
      <!-- $\mathdefault{10^{6}}$ -->
      <g style="fill: #26323f" transform="translate(389.284977 262.329938) scale(0.11 -0.11)">
       <defs>
        <path id="DejaVuSans-19" d="M 2113 2584 
Q 1688 2584 1439 2293 
Q 1191 2003 1191 1497 
Q 1191 994 1439 701 
Q 1688 409 2113 409 
Q 2538 409 2786 701 
Q 3034 994 3034 1497 
Q 3034 2003 2786 2293 
Q 2538 2584 2113 2584 
z
M 3366 4563 
L 3366 3988 
Q 3128 4100 2886 4159 
Q 2644 4219 2406 4219 
Q 1781 4219 1451 3797 
Q 1122 3375 1075 2522 
Q 1259 2794 1537 2939 
Q 1816 3084 2150 3084 
Q 2853 3084 3261 2657 
Q 3669 2231 3669 1497 
Q 3669 778 3244 343 
Q 2819 -91 2113 -91 
Q 1303 -91 875 529 
Q 447 1150 447 2328 
Q 447 3434 972 4092 
Q 1497 4750 2381 4750 
Q 2619 4750 2861 4703 
Q 3103 4656 3366 4563 
z
" transform="scale(0.015625)"/>
       </defs>
       <use xlink:href="#DejaVuSans-14" transform="translate(0 0.746875)"/>
       <use xlink:href="#DejaVuSans-13" transform="translate(63.623047 0.746875)"/>
       <use xlink:href="#DejaVuSans-19" transform="translate(128.203125 42.046875) scale(0.7)"/>
      </g>
     </g>
    </g>
    <g id="xtick_5">
     <g id="line2d_9">
      <path d="M 479.039926 244.989938 
L 479.039926 23.229938 
" clip-path="url(#pc80eb8f7d5)" style="fill: none; stroke: #d8dee4; stroke-width: 0.6; stroke-linecap: square"/>
     </g>
     <g id="line2d_10">
      <g>
       <use xlink:href="#mef88e2de99" x="479.039926" y="244.989938" style="fill: #26323f; stroke: #26323f; stroke-width: 0.8"/>
      </g>
     </g>
     <g id="text_5">
      <!-- $\mathdefault{10^{8}}$ -->
      <g style="fill: #26323f" transform="translate(469.359926 262.329938) scale(0.11 -0.11)">
       <defs>
        <path id="DejaVuSans-1b" d="M 2034 2216 
Q 1584 2216 1326 1975 
Q 1069 1734 1069 1313 
Q 1069 891 1326 650 
Q 1584 409 2034 409 
Q 2484 409 2743 651 
Q 3003 894 3003 1313 
Q 3003 1734 2745 1975 
Q 2488 2216 2034 2216 
z
M 1403 2484 
Q 997 2584 770 2862 
Q 544 3141 544 3541 
Q 544 4100 942 4425 
Q 1341 4750 2034 4750 
Q 2731 4750 3128 4425 
Q 3525 4100 3525 3541 
Q 3525 3141 3298 2862 
Q 3072 2584 2669 2484 
Q 3125 2378 3379 2068 
Q 3634 1759 3634 1313 
Q 3634 634 3220 271 
Q 2806 -91 2034 -91 
Q 1263 -91 848 271 
Q 434 634 434 1313 
Q 434 1759 690 2068 
Q 947 2378 1403 2484 
z
M 1172 3481 
Q 1172 3119 1398 2916 
Q 1625 2713 2034 2713 
Q 2441 2713 2670 2916 
Q 2900 3119 2900 3481 
Q 2900 3844 2670 4047 
Q 2441 4250 2034 4250 
Q 1625 4250 1398 4047 
Q 1172 3844 1172 3481 
z
" transform="scale(0.015625)"/>
       </defs>
       <use xlink:href="#DejaVuSans-14" transform="translate(0 0.746875)"/>
       <use xlink:href="#DejaVuSans-13" transform="translate(63.623047 0.746875)"/>
       <use xlink:href="#DejaVuSans-1b" transform="translate(128.203125 42.046875) scale(0.7)"/>
      </g>
     </g>
    </g>
    <g id="text_6">
     <!-- time to fetch one item  (nanoseconds, log scale) -->
     <g style="fill: #26323f" transform="translate(175.059688 277.330797) scale(0.11 -0.11)">
      <defs>
       <path id="DejaVuSans-57" d="M 1172 4494 
L 1172 3500 
L 2356 3500 
L 2356 3053 
L 1172 3053 
L 1172 1153 
Q 1172 725 1289 603 
Q 1406 481 1766 481 
L 2356 481 
L 2356 0 
L 1766 0 
Q 1100 0 847 248 
Q 594 497 594 1153 
L 594 3053 
L 172 3053 
L 172 3500 
L 594 3500 
L 594 4494 
L 1172 4494 
z
" transform="scale(0.015625)"/>
       <path id="DejaVuSans-4c" d="M 603 3500 
L 1178 3500 
L 1178 0 
L 603 0 
L 603 3500 
z
M 603 4863 
L 1178 4863 
L 1178 4134 
L 603 4134 
L 603 4863 
z
" transform="scale(0.015625)"/>
       <path id="DejaVuSans-50" d="M 3328 2828 
Q 3544 3216 3844 3400 
Q 4144 3584 4550 3584 
Q 5097 3584 5394 3201 
Q 5691 2819 5691 2113 
L 5691 0 
L 5113 0 
L 5113 2094 
Q 5113 2597 4934 2840 
Q 4756 3084 4391 3084 
Q 3944 3084 3684 2787 
Q 3425 2491 3425 1978 
L 3425 0 
L 2847 0 
L 2847 2094 
Q 2847 2600 2669 2842 
Q 2491 3084 2119 3084 
Q 1678 3084 1418 2786 
Q 1159 2488 1159 1978 
L 1159 0 
L 581 0 
L 581 3500 
L 1159 3500 
L 1159 2956 
Q 1356 3278 1631 3431 
Q 1906 3584 2284 3584 
Q 2666 3584 2933 3390 
Q 3200 3197 3328 2828 
z
" transform="scale(0.015625)"/>
       <path id="DejaVuSans-48" d="M 3597 1894 
L 3597 1613 
L 953 1613 
Q 991 1019 1311 708 
Q 1631 397 2203 397 
Q 2534 397 2845 478 
Q 3156 559 3463 722 
L 3463 178 
Q 3153 47 2828 -22 
Q 2503 -91 2169 -91 
Q 1331 -91 842 396 
Q 353 884 353 1716 
Q 353 2575 817 3079 
Q 1281 3584 2069 3584 
Q 2775 3584 3186 3129 
Q 3597 2675 3597 1894 
z
M 3022 2063 
Q 3016 2534 2758 2815 
Q 2500 3097 2075 3097 
Q 1594 3097 1305 2825 
Q 1016 2553 972 2059 
L 3022 2063 
z
" transform="scale(0.015625)"/>
       <path id="DejaVuSans-3" transform="scale(0.015625)"/>
       <path id="DejaVuSans-52" d="M 1959 3097 
Q 1497 3097 1228 2736 
Q 959 2375 959 1747 
Q 959 1119 1226 758 
Q 1494 397 1959 397 
Q 2419 397 2687 759 
Q 2956 1122 2956 1747 
Q 2956 2369 2687 2733 
Q 2419 3097 1959 3097 
z
M 1959 3584 
Q 2709 3584 3137 3096 
Q 3566 2609 3566 1747 
Q 3566 888 3137 398 
Q 2709 -91 1959 -91 
Q 1206 -91 779 398 
Q 353 888 353 1747 
Q 353 2609 779 3096 
Q 1206 3584 1959 3584 
z
" transform="scale(0.015625)"/>
       <path id="DejaVuSans-49" d="M 2375 4863 
L 2375 4384 
L 1825 4384 
Q 1516 4384 1395 4259 
Q 1275 4134 1275 3809 
L 1275 3500 
L 2222 3500 
L 2222 3053 
L 1275 3053 
L 1275 0 
L 697 0 
L 697 3053 
L 147 3053 
L 147 3500 
L 697 3500 
L 697 3744 
Q 697 4328 969 4595 
Q 1241 4863 1831 4863 
L 2375 4863 
z
" transform="scale(0.015625)"/>
       <path id="DejaVuSans-46" d="M 3122 3366 
L 3122 2828 
Q 2878 2963 2633 3030 
Q 2388 3097 2138 3097 
Q 1578 3097 1268 2742 
Q 959 2388 959 1747 
Q 959 1106 1268 751 
Q 1578 397 2138 397 
Q 2388 397 2633 464 
Q 2878 531 3122 666 
L 3122 134 
Q 2881 22 2623 -34 
Q 2366 -91 2075 -91 
Q 1284 -91 818 406 
Q 353 903 353 1747 
Q 353 2603 823 3093 
Q 1294 3584 2113 3584 
Q 2378 3584 2631 3529 
Q 2884 3475 3122 3366 
z
" transform="scale(0.015625)"/>
       <path id="DejaVuSans-4b" d="M 3513 2113 
L 3513 0 
L 2938 0 
L 2938 2094 
Q 2938 2591 2744 2837 
Q 2550 3084 2163 3084 
Q 1697 3084 1428 2787 
Q 1159 2491 1159 1978 
L 1159 0 
L 581 0 
L 581 4863 
L 1159 4863 
L 1159 2956 
Q 1366 3272 1645 3428 
Q 1925 3584 2291 3584 
Q 2894 3584 3203 3211 
Q 3513 2838 3513 2113 
z
" transform="scale(0.015625)"/>
       <path id="DejaVuSans-51" d="M 3513 2113 
L 3513 0 
L 2938 0 
L 2938 2094 
Q 2938 2591 2744 2837 
Q 2550 3084 2163 3084 
Q 1697 3084 1428 2787 
Q 1159 2491 1159 1978 
L 1159 0 
L 581 0 
L 581 3500 
L 1159 3500 
L 1159 2956 
Q 1366 3272 1645 3428 
Q 1925 3584 2291 3584 
Q 2894 3584 3203 3211 
Q 3513 2838 3513 2113 
z
" transform="scale(0.015625)"/>
       <path id="DejaVuSans-b" d="M 1984 4856 
Q 1566 4138 1362 3434 
Q 1159 2731 1159 2009 
Q 1159 1288 1364 580 
Q 1569 -128 1984 -844 
L 1484 -844 
Q 1016 -109 783 600 
Q 550 1309 550 2009 
Q 550 2706 781 3412 
Q 1013 4119 1484 4856 
L 1984 4856 
z
" transform="scale(0.015625)"/>
       <path id="DejaVuSans-44" d="M 2194 1759 
Q 1497 1759 1228 1600 
Q 959 1441 959 1056 
Q 959 750 1161 570 
Q 1363 391 1709 391 
Q 2188 391 2477 730 
Q 2766 1069 2766 1631 
L 2766 1759 
L 2194 1759 
z
M 3341 1997 
L 3341 0 
L 2766 0 
L 2766 531 
Q 2569 213 2275 61 
Q 1981 -91 1556 -91 
Q 1019 -91 701 211 
Q 384 513 384 1019 
Q 384 1609 779 1909 
Q 1175 2209 1959 2209 
L 2766 2209 
L 2766 2266 
Q 2766 2663 2505 2880 
Q 2244 3097 1772 3097 
Q 1472 3097 1187 3025 
Q 903 2953 641 2809 
L 641 3341 
Q 956 3463 1253 3523 
Q 1550 3584 1831 3584 
Q 2591 3584 2966 3190 
Q 3341 2797 3341 1997 
z
" transform="scale(0.015625)"/>
       <path id="DejaVuSans-56" d="M 2834 3397 
L 2834 2853 
Q 2591 2978 2328 3040 
Q 2066 3103 1784 3103 
Q 1356 3103 1142 2972 
Q 928 2841 928 2578 
Q 928 2378 1081 2264 
Q 1234 2150 1697 2047 
L 1894 2003 
Q 2506 1872 2764 1633 
Q 3022 1394 3022 966 
Q 3022 478 2636 193 
Q 2250 -91 1575 -91 
Q 1294 -91 989 -36 
Q 684 19 347 128 
L 347 722 
Q 666 556 975 473 
Q 1284 391 1588 391 
Q 1994 391 2212 530 
Q 2431 669 2431 922 
Q 2431 1156 2273 1281 
Q 2116 1406 1581 1522 
L 1381 1569 
Q 847 1681 609 1914 
Q 372 2147 372 2553 
Q 372 3047 722 3315 
Q 1072 3584 1716 3584 
Q 2034 3584 2315 3537 
Q 2597 3491 2834 3397 
z
" transform="scale(0.015625)"/>
       <path id="DejaVuSans-47" d="M 2906 2969 
L 2906 4863 
L 3481 4863 
L 3481 0 
L 2906 0 
L 2906 525 
Q 2725 213 2448 61 
Q 2172 -91 1784 -91 
Q 1150 -91 751 415 
Q 353 922 353 1747 
Q 353 2572 751 3078 
Q 1150 3584 1784 3584 
Q 2172 3584 2448 3432 
Q 2725 3281 2906 2969 
z
M 947 1747 
Q 947 1113 1208 752 
Q 1469 391 1925 391 
Q 2381 391 2643 752 
Q 2906 1113 2906 1747 
Q 2906 2381 2643 2742 
Q 2381 3103 1925 3103 
Q 1469 3103 1208 2742 
Q 947 2381 947 1747 
z
" transform="scale(0.015625)"/>
       <path id="DejaVuSans-f" d="M 750 794 
L 1409 794 
L 1409 256 
L 897 -744 
L 494 -744 
L 750 256 
L 750 794 
z
" transform="scale(0.015625)"/>
       <path id="DejaVuSans-4f" d="M 603 4863 
L 1178 4863 
L 1178 0 
L 603 0 
L 603 4863 
z
" transform="scale(0.015625)"/>
       <path id="DejaVuSans-4a" d="M 2906 1791 
Q 2906 2416 2648 2759 
Q 2391 3103 1925 3103 
Q 1463 3103 1205 2759 
Q 947 2416 947 1791 
Q 947 1169 1205 825 
Q 1463 481 1925 481 
Q 2391 481 2648 825 
Q 2906 1169 2906 1791 
z
M 3481 434 
Q 3481 -459 3084 -895 
Q 2688 -1331 1869 -1331 
Q 1566 -1331 1297 -1286 
Q 1028 -1241 775 -1147 
L 775 -588 
Q 1028 -725 1275 -790 
Q 1522 -856 1778 -856 
Q 2344 -856 2625 -561 
Q 2906 -266 2906 331 
L 2906 616 
Q 2728 306 2450 153 
Q 2172 0 1784 0 
Q 1141 0 747 490 
Q 353 981 353 1791 
Q 353 2603 747 3093 
Q 1141 3584 1784 3584 
Q 2172 3584 2450 3431 
Q 2728 3278 2906 2969 
L 2906 3500 
L 3481 3500 
L 3481 434 
z
" transform="scale(0.015625)"/>
       <path id="DejaVuSans-c" d="M 513 4856 
L 1013 4856 
Q 1481 4119 1714 3412 
Q 1947 2706 1947 2009 
Q 1947 1309 1714 600 
Q 1481 -109 1013 -844 
L 513 -844 
Q 928 -128 1133 580 
Q 1338 1288 1338 2009 
Q 1338 2731 1133 3434 
Q 928 4138 513 4856 
z
" transform="scale(0.015625)"/>
      </defs>
      <use xlink:href="#DejaVuSans-57"/>
      <use xlink:href="#DejaVuSans-4c" transform="translate(39.203125 0)"/>
      <use xlink:href="#DejaVuSans-50" transform="translate(66.984375 0)"/>
      <use xlink:href="#DejaVuSans-48" transform="translate(164.390625 0)"/>
      <use xlink:href="#DejaVuSans-3" transform="translate(225.921875 0)"/>
      <use xlink:href="#DejaVuSans-57" transform="translate(257.703125 0)"/>
      <use xlink:href="#DejaVuSans-52" transform="translate(296.90625 0)"/>
      <use xlink:href="#DejaVuSans-3" transform="translate(358.09375 0)"/>
      <use xlink:href="#DejaVuSans-49" transform="translate(389.875 0)"/>
      <use xlink:href="#DejaVuSans-48" transform="translate(425.078125 0)"/>
      <use xlink:href="#DejaVuSans-57" transform="translate(486.609375 0)"/>
      <use xlink:href="#DejaVuSans-46" transform="translate(525.8125 0)"/>
      <use xlink:href="#DejaVuSans-4b" transform="translate(580.796875 0)"/>
      <use xlink:href="#DejaVuSans-3" transform="translate(644.171875 0)"/>
      <use xlink:href="#DejaVuSans-52" transform="translate(675.953125 0)"/>
      <use xlink:href="#DejaVuSans-51" transform="translate(737.140625 0)"/>
      <use xlink:href="#DejaVuSans-48" transform="translate(800.515625 0)"/>
      <use xlink:href="#DejaVuSans-3" transform="translate(862.046875 0)"/>
      <use xlink:href="#DejaVuSans-4c" transform="translate(893.828125 0)"/>
      <use xlink:href="#DejaVuSans-57" transform="translate(921.609375 0)"/>
      <use xlink:href="#DejaVuSans-48" transform="translate(960.8125 0)"/>
      <use xlink:href="#DejaVuSans-50" transform="translate(1022.34375 0)"/>
      <use xlink:href="#DejaVuSans-3" transform="translate(1119.75 0)"/>
      <use xlink:href="#DejaVuSans-3" transform="translate(1151.53125 0)"/>
      <use xlink:href="#DejaVuSans-b" transform="translate(1183.3125 0)"/>
      <use xlink:href="#DejaVuSans-51" transform="translate(1222.328125 0)"/>
      <use xlink:href="#DejaVuSans-44" transform="translate(1285.703125 0)"/>
      <use xlink:href="#DejaVuSans-51" transform="translate(1346.984375 0)"/>
      <use xlink:href="#DejaVuSans-52" transform="translate(1410.359375 0)"/>
      <use xlink:href="#DejaVuSans-56" transform="translate(1471.546875 0)"/>
      <use xlink:href="#DejaVuSans-48" transform="translate(1523.640625 0)"/>
      <use xlink:href="#DejaVuSans-46" transform="translate(1585.171875 0)"/>
      <use xlink:href="#DejaVuSans-52" transform="translate(1640.15625 0)"/>
      <use xlink:href="#DejaVuSans-51" transform="translate(1701.34375 0)"/>
      <use xlink:href="#DejaVuSans-47" transform="translate(1764.71875 0)"/>
      <use xlink:href="#DejaVuSans-56" transform="translate(1828.203125 0)"/>
      <use xlink:href="#DejaVuSans-f" transform="translate(1880.296875 0)"/>
      <use xlink:href="#DejaVuSans-3" transform="translate(1912.078125 0)"/>
      <use xlink:href="#DejaVuSans-4f" transform="translate(1943.859375 0)"/>
      <use xlink:href="#DejaVuSans-52" transform="translate(1971.640625 0)"/>
      <use xlink:href="#DejaVuSans-4a" transform="translate(2032.828125 0)"/>
      <use xlink:href="#DejaVuSans-3" transform="translate(2096.3125 0)"/>
      <use xlink:href="#DejaVuSans-56" transform="translate(2128.09375 0)"/>
      <use xlink:href="#DejaVuSans-46" transform="translate(2180.1875 0)"/>
      <use xlink:href="#DejaVuSans-44" transform="translate(2235.171875 0)"/>
      <use xlink:href="#DejaVuSans-4f" transform="translate(2296.453125 0)"/>
      <use xlink:href="#DejaVuSans-48" transform="translate(2324.234375 0)"/>
      <use xlink:href="#DejaVuSans-c" transform="translate(2385.765625 0)"/>
     </g>
    </g>
   </g>
   <g id="matplotlib.axis_2">
    <g id="ytick_1">
     <g id="line2d_11">
      <defs>
       <path id="m08db2a542a" d="M 0 0 
L -3.5 0 
" style="stroke: #26323f; stroke-width: 0.8"/>
      </defs>
      <g>
       <use xlink:href="#m08db2a542a" x="118.702656" y="42.750421" style="fill: #26323f; stroke: #26323f; stroke-width: 0.8"/>
      </g>
     </g>
     <g id="text_7">
      <!-- CPU register -->
      <g style="fill: #26323f" transform="translate(55.836563 46.169718) scale(0.09 -0.09)">
       <defs>
        <path id="DejaVuSans-26" d="M 4122 4306 
L 4122 3641 
Q 3803 3938 3442 4084 
Q 3081 4231 2675 4231 
Q 1875 4231 1450 3742 
Q 1025 3253 1025 2328 
Q 1025 1406 1450 917 
Q 1875 428 2675 428 
Q 3081 428 3442 575 
Q 3803 722 4122 1019 
L 4122 359 
Q 3791 134 3420 21 
Q 3050 -91 2638 -91 
Q 1578 -91 968 557 
Q 359 1206 359 2328 
Q 359 3453 968 4101 
Q 1578 4750 2638 4750 
Q 3056 4750 3426 4639 
Q 3797 4528 4122 4306 
z
" transform="scale(0.015625)"/>
        <path id="DejaVuSans-33" d="M 1259 4147 
L 1259 2394 
L 2053 2394 
Q 2494 2394 2734 2622 
Q 2975 2850 2975 3272 
Q 2975 3691 2734 3919 
Q 2494 4147 2053 4147 
L 1259 4147 
z
M 628 4666 
L 2053 4666 
Q 2838 4666 3239 4311 
Q 3641 3956 3641 3272 
Q 3641 2581 3239 2228 
Q 2838 1875 2053 1875 
L 1259 1875 
L 1259 0 
L 628 0 
L 628 4666 
z
" transform="scale(0.015625)"/>
        <path id="DejaVuSans-38" d="M 556 4666 
L 1191 4666 
L 1191 1831 
Q 1191 1081 1462 751 
Q 1734 422 2344 422 
Q 2950 422 3222 751 
Q 3494 1081 3494 1831 
L 3494 4666 
L 4128 4666 
L 4128 1753 
Q 4128 841 3676 375 
Q 3225 -91 2344 -91 
Q 1459 -91 1007 375 
Q 556 841 556 1753 
L 556 4666 
z
" transform="scale(0.015625)"/>
        <path id="DejaVuSans-55" d="M 2631 2963 
Q 2534 3019 2420 3045 
Q 2306 3072 2169 3072 
Q 1681 3072 1420 2755 
Q 1159 2438 1159 1844 
L 1159 0 
L 581 0 
L 581 3500 
L 1159 3500 
L 1159 2956 
Q 1341 3275 1631 3429 
Q 1922 3584 2338 3584 
Q 2397 3584 2469 3576 
Q 2541 3569 2628 3553 
L 2631 2963 
z
" transform="scale(0.015625)"/>
       </defs>
       <use xlink:href="#DejaVuSans-26"/>
       <use xlink:href="#DejaVuSans-33" transform="translate(69.828125 0)"/>
       <use xlink:href="#DejaVuSans-38" transform="translate(130.125 0)"/>
       <use xlink:href="#DejaVuSans-3" transform="translate(203.3125 0)"/>
       <use xlink:href="#DejaVuSans-55" transform="translate(235.09375 0)"/>
       <use xlink:href="#DejaVuSans-48" transform="translate(274 0)"/>
       <use xlink:href="#DejaVuSans-4a" transform="translate(335.53125 0)"/>
       <use xlink:href="#DejaVuSans-4c" transform="translate(399.015625 0)"/>
       <use xlink:href="#DejaVuSans-56" transform="translate(426.796875 0)"/>
       <use xlink:href="#DejaVuSans-57" transform="translate(478.890625 0)"/>
       <use xlink:href="#DejaVuSans-48" transform="translate(518.09375 0)"/>
       <use xlink:href="#DejaVuSans-55" transform="translate(579.625 0)"/>
      </g>
     </g>
    </g>
    <g id="ytick_2">
     <g id="line2d_12">
      <g>
       <use xlink:href="#m08db2a542a" x="118.702656" y="73.203593" style="fill: #26323f; stroke: #26323f; stroke-width: 0.8"/>
      </g>
     </g>
     <g id="text_8">
      <!-- L1 cache -->
      <g style="fill: #26323f" transform="translate(71.447344 76.62289) scale(0.09 -0.09)">
       <defs>
        <path id="DejaVuSans-2f" d="M 628 4666 
L 1259 4666 
L 1259 531 
L 3531 531 
L 3531 0 
L 628 0 
L 628 4666 
z
" transform="scale(0.015625)"/>
       </defs>
       <use xlink:href="#DejaVuSans-2f"/>
       <use xlink:href="#DejaVuSans-14" transform="translate(55.71875 0)"/>
       <use xlink:href="#DejaVuSans-3" transform="translate(119.34375 0)"/>
       <use xlink:href="#DejaVuSans-46" transform="translate(151.125 0)"/>
       <use xlink:href="#DejaVuSans-44" transform="translate(206.109375 0)"/>
       <use xlink:href="#DejaVuSans-46" transform="translate(267.390625 0)"/>
       <use xlink:href="#DejaVuSans-4b" transform="translate(322.375 0)"/>
       <use xlink:href="#DejaVuSans-48" transform="translate(385.75 0)"/>
      </g>
     </g>
    </g>
    <g id="ytick_3">
     <g id="line2d_13">
      <g>
       <use xlink:href="#m08db2a542a" x="118.702656" y="103.656765" style="fill: #26323f; stroke: #26323f; stroke-width: 0.8"/>
      </g>
     </g>
     <g id="text_9">
      <!-- L2 cache -->
      <g style="fill: #26323f" transform="translate(71.447344 107.076062) scale(0.09 -0.09)">
       <use xlink:href="#DejaVuSans-2f"/>
       <use xlink:href="#DejaVuSans-15" transform="translate(55.71875 0)"/>
       <use xlink:href="#DejaVuSans-3" transform="translate(119.34375 0)"/>
       <use xlink:href="#DejaVuSans-46" transform="translate(151.125 0)"/>
       <use xlink:href="#DejaVuSans-44" transform="translate(206.109375 0)"/>
       <use xlink:href="#DejaVuSans-46" transform="translate(267.390625 0)"/>
       <use xlink:href="#DejaVuSans-4b" transform="translate(322.375 0)"/>
       <use xlink:href="#DejaVuSans-48" transform="translate(385.75 0)"/>
      </g>
     </g>
    </g>
    <g id="ytick_4">
     <g id="line2d_14">
      <g>
       <use xlink:href="#m08db2a542a" x="118.702656" y="134.109938" style="fill: #26323f; stroke: #26323f; stroke-width: 0.8"/>
      </g>
     </g>
     <g id="text_10">
      <!-- L3 cache -->
      <g style="fill: #26323f" transform="translate(71.447344 137.529234) scale(0.09 -0.09)">
       <defs>
        <path id="DejaVuSans-16" d="M 2597 2516 
Q 3050 2419 3304 2112 
Q 3559 1806 3559 1356 
Q 3559 666 3084 287 
Q 2609 -91 1734 -91 
Q 1441 -91 1130 -33 
Q 819 25 488 141 
L 488 750 
Q 750 597 1062 519 
Q 1375 441 1716 441 
Q 2309 441 2620 675 
Q 2931 909 2931 1356 
Q 2931 1769 2642 2001 
Q 2353 2234 1838 2234 
L 1294 2234 
L 1294 2753 
L 1863 2753 
Q 2328 2753 2575 2939 
Q 2822 3125 2822 3475 
Q 2822 3834 2567 4026 
Q 2313 4219 1838 4219 
Q 1578 4219 1281 4162 
Q 984 4106 628 3988 
L 628 4550 
Q 988 4650 1302 4700 
Q 1616 4750 1894 4750 
Q 2613 4750 3031 4423 
Q 3450 4097 3450 3541 
Q 3450 3153 3228 2886 
Q 3006 2619 2597 2516 
z
" transform="scale(0.015625)"/>
       </defs>
       <use xlink:href="#DejaVuSans-2f"/>
       <use xlink:href="#DejaVuSans-16" transform="translate(55.71875 0)"/>
       <use xlink:href="#DejaVuSans-3" transform="translate(119.34375 0)"/>
       <use xlink:href="#DejaVuSans-46" transform="translate(151.125 0)"/>
       <use xlink:href="#DejaVuSans-44" transform="translate(206.109375 0)"/>
       <use xlink:href="#DejaVuSans-46" transform="translate(267.390625 0)"/>
       <use xlink:href="#DejaVuSans-4b" transform="translate(322.375 0)"/>
       <use xlink:href="#DejaVuSans-48" transform="translate(385.75 0)"/>
      </g>
     </g>
    </g>
    <g id="ytick_5">
     <g id="line2d_15">
      <g>
       <use xlink:href="#m08db2a542a" x="118.702656" y="164.56311" style="fill: #26323f; stroke: #26323f; stroke-width: 0.8"/>
      </g>
     </g>
     <g id="text_11">
      <!-- RAM -->
      <g style="fill: #26323f" transform="translate(91.891406 167.982055) scale(0.09 -0.09)">
       <defs>
        <path id="DejaVuSans-35" d="M 2841 2188 
Q 3044 2119 3236 1894 
Q 3428 1669 3622 1275 
L 4263 0 
L 3584 0 
L 2988 1197 
Q 2756 1666 2539 1819 
Q 2322 1972 1947 1972 
L 1259 1972 
L 1259 0 
L 628 0 
L 628 4666 
L 2053 4666 
Q 2853 4666 3247 4331 
Q 3641 3997 3641 3322 
Q 3641 2881 3436 2590 
Q 3231 2300 2841 2188 
z
M 1259 4147 
L 1259 2491 
L 2053 2491 
Q 2509 2491 2742 2702 
Q 2975 2913 2975 3322 
Q 2975 3731 2742 3939 
Q 2509 4147 2053 4147 
L 1259 4147 
z
" transform="scale(0.015625)"/>
        <path id="DejaVuSans-24" d="M 2188 4044 
L 1331 1722 
L 3047 1722 
L 2188 4044 
z
M 1831 4666 
L 2547 4666 
L 4325 0 
L 3669 0 
L 3244 1197 
L 1141 1197 
L 716 0 
L 50 0 
L 1831 4666 
z
" transform="scale(0.015625)"/>
        <path id="DejaVuSans-30" d="M 628 4666 
L 1569 4666 
L 2759 1491 
L 3956 4666 
L 4897 4666 
L 4897 0 
L 4281 0 
L 4281 4097 
L 3078 897 
L 2444 897 
L 1241 4097 
L 1241 0 
L 628 0 
L 628 4666 
z
" transform="scale(0.015625)"/>
       </defs>
       <use xlink:href="#DejaVuSans-35"/>
       <use xlink:href="#DejaVuSans-24" transform="translate(65.4375 0)"/>
       <use xlink:href="#DejaVuSans-30" transform="translate(133.84375 0)"/>
      </g>
     </g>
    </g>
    <g id="ytick_6">
     <g id="line2d_16">
      <g>
       <use xlink:href="#m08db2a542a" x="118.702656" y="195.016282" style="fill: #26323f; stroke: #26323f; stroke-width: 0.8"/>
      </g>
     </g>
     <g id="text_12">
      <!-- SSD -->
      <g style="fill: #26323f" transform="translate(93.345469 198.435227) scale(0.09 -0.09)">
       <defs>
        <path id="DejaVuSans-36" d="M 3425 4513 
L 3425 3897 
Q 3066 4069 2747 4153 
Q 2428 4238 2131 4238 
Q 1616 4238 1336 4038 
Q 1056 3838 1056 3469 
Q 1056 3159 1242 3001 
Q 1428 2844 1947 2747 
L 2328 2669 
Q 3034 2534 3370 2195 
Q 3706 1856 3706 1288 
Q 3706 609 3251 259 
Q 2797 -91 1919 -91 
Q 1588 -91 1214 -16 
Q 841 59 441 206 
L 441 856 
Q 825 641 1194 531 
Q 1563 422 1919 422 
Q 2459 422 2753 634 
Q 3047 847 3047 1241 
Q 3047 1584 2836 1778 
Q 2625 1972 2144 2069 
L 1759 2144 
Q 1053 2284 737 2584 
Q 422 2884 422 3419 
Q 422 4038 858 4394 
Q 1294 4750 2059 4750 
Q 2388 4750 2728 4690 
Q 3069 4631 3425 4513 
z
" transform="scale(0.015625)"/>
        <path id="DejaVuSans-27" d="M 1259 4147 
L 1259 519 
L 2022 519 
Q 2988 519 3436 956 
Q 3884 1394 3884 2338 
Q 3884 3275 3436 3711 
Q 2988 4147 2022 4147 
L 1259 4147 
z
M 628 4666 
L 1925 4666 
Q 3281 4666 3915 4102 
Q 4550 3538 4550 2338 
Q 4550 1131 3912 565 
Q 3275 0 1925 0 
L 628 0 
L 628 4666 
z
" transform="scale(0.015625)"/>
       </defs>
       <use xlink:href="#DejaVuSans-36"/>
       <use xlink:href="#DejaVuSans-36" transform="translate(63.484375 0)"/>
       <use xlink:href="#DejaVuSans-27" transform="translate(126.96875 0)"/>
      </g>
     </g>
    </g>
    <g id="ytick_7">
     <g id="line2d_17">
      <g>
       <use xlink:href="#m08db2a542a" x="118.702656" y="225.469454" style="fill: #26323f; stroke: #26323f; stroke-width: 0.8"/>
      </g>
     </g>
     <g id="text_13">
      <!-- network / spinning disk -->
      <g style="fill: #26323f" transform="translate(7.2 228.888751) scale(0.09 -0.09)">
       <defs>
        <path id="DejaVuSans-5a" d="M 269 3500 
L 844 3500 
L 1563 769 
L 2278 3500 
L 2956 3500 
L 3675 769 
L 4391 3500 
L 4966 3500 
L 4050 0 
L 3372 0 
L 2619 2869 
L 1863 0 
L 1184 0 
L 269 3500 
z
" transform="scale(0.015625)"/>
        <path id="DejaVuSans-4e" d="M 581 4863 
L 1159 4863 
L 1159 1991 
L 2875 3500 
L 3609 3500 
L 1753 1863 
L 3688 0 
L 2938 0 
L 1159 1709 
L 1159 0 
L 581 0 
L 581 4863 
z
" transform="scale(0.015625)"/>
        <path id="DejaVuSans-12" d="M 1625 4666 
L 2156 4666 
L 531 -594 
L 0 -594 
L 1625 4666 
z
" transform="scale(0.015625)"/>
        <path id="DejaVuSans-53" d="M 1159 525 
L 1159 -1331 
L 581 -1331 
L 581 3500 
L 1159 3500 
L 1159 2969 
Q 1341 3281 1617 3432 
Q 1894 3584 2278 3584 
Q 2916 3584 3314 3078 
Q 3713 2572 3713 1747 
Q 3713 922 3314 415 
Q 2916 -91 2278 -91 
Q 1894 -91 1617 61 
Q 1341 213 1159 525 
z
M 3116 1747 
Q 3116 2381 2855 2742 
Q 2594 3103 2138 3103 
Q 1681 3103 1420 2742 
Q 1159 2381 1159 1747 
Q 1159 1113 1420 752 
Q 1681 391 2138 391 
Q 2594 391 2855 752 
Q 3116 1113 3116 1747 
z
" transform="scale(0.015625)"/>
       </defs>
       <use xlink:href="#DejaVuSans-51"/>
       <use xlink:href="#DejaVuSans-48" transform="translate(63.375 0)"/>
       <use xlink:href="#DejaVuSans-57" transform="translate(124.90625 0)"/>
       <use xlink:href="#DejaVuSans-5a" transform="translate(164.109375 0)"/>
       <use xlink:href="#DejaVuSans-52" transform="translate(245.890625 0)"/>
       <use xlink:href="#DejaVuSans-55" transform="translate(307.078125 0)"/>
       <use xlink:href="#DejaVuSans-4e" transform="translate(348.1875 0)"/>
       <use xlink:href="#DejaVuSans-3" transform="translate(406.09375 0)"/>
       <use xlink:href="#DejaVuSans-12" transform="translate(437.875 0)"/>
       <use xlink:href="#DejaVuSans-3" transform="translate(471.5625 0)"/>
       <use xlink:href="#DejaVuSans-56" transform="translate(503.34375 0)"/>
       <use xlink:href="#DejaVuSans-53" transform="translate(555.4375 0)"/>
       <use xlink:href="#DejaVuSans-4c" transform="translate(618.921875 0)"/>
       <use xlink:href="#DejaVuSans-51" transform="translate(646.703125 0)"/>
       <use xlink:href="#DejaVuSans-51" transform="translate(710.078125 0)"/>
       <use xlink:href="#DejaVuSans-4c" transform="translate(773.453125 0)"/>
       <use xlink:href="#DejaVuSans-51" transform="translate(801.234375 0)"/>
       <use xlink:href="#DejaVuSans-4a" transform="translate(864.609375 0)"/>
       <use xlink:href="#DejaVuSans-3" transform="translate(928.09375 0)"/>
       <use xlink:href="#DejaVuSans-47" transform="translate(959.875 0)"/>
       <use xlink:href="#DejaVuSans-4c" transform="translate(1023.359375 0)"/>
       <use xlink:href="#DejaVuSans-56" transform="translate(1051.140625 0)"/>
       <use xlink:href="#DejaVuSans-4e" transform="translate(1103.234375 0)"/>
      </g>
     </g>
    </g>
   </g>
   <g id="patch_10">
    <path d="M 118.702656 244.989938 
L 118.702656 23.229938 
" style="fill: none; stroke: #26323f; stroke-width: 0.9; stroke-linejoin: miter; stroke-linecap: square"/>
   </g>
   <g id="patch_11">
    <path d="M 118.702656 244.989938 
L 498.142656 244.989938 
" style="fill: none; stroke: #26323f; stroke-width: 0.9; stroke-linejoin: miter; stroke-linecap: square"/>
   </g>
   <g id="text_14">
    <!-- ~1 KB -->
    <g style="fill: #26323f" transform="translate(145.977835 44.958429) scale(0.085 -0.085)">
     <defs>
      <path id="DejaVuSans-61" d="M 4684 2553 
L 4684 1997 
Q 4356 1750 4076 1644 
Q 3797 1538 3494 1538 
Q 3150 1538 2694 1722 
Q 2659 1734 2644 1741 
Q 2622 1750 2575 1766 
Q 2091 1959 1797 1959 
Q 1522 1959 1253 1839 
Q 984 1719 678 1459 
L 678 2016 
Q 1006 2263 1286 2370 
Q 1566 2478 1869 2478 
Q 2213 2478 2672 2291 
Q 2703 2278 2719 2272 
Q 2744 2263 2788 2247 
Q 3272 2053 3566 2053 
Q 3834 2053 4098 2172 
Q 4363 2291 4684 2553 
z
" transform="scale(0.015625)"/>
      <path id="DejaVuSans-2e" d="M 628 4666 
L 1259 4666 
L 1259 2694 
L 3353 4666 
L 4166 4666 
L 1850 2491 
L 4331 0 
L 3500 0 
L 1259 2247 
L 1259 0 
L 628 0 
L 628 4666 
z
" transform="scale(0.015625)"/>
      <path id="DejaVuSans-25" d="M 1259 2228 
L 1259 519 
L 2272 519 
Q 2781 519 3026 730 
Q 3272 941 3272 1375 
Q 3272 1813 3026 2020 
Q 2781 2228 2272 2228 
L 1259 2228 
z
M 1259 4147 
L 1259 2741 
L 2194 2741 
Q 2656 2741 2882 2914 
Q 3109 3088 3109 3444 
Q 3109 3797 2882 3972 
Q 2656 4147 2194 4147 
L 1259 4147 
z
M 628 4666 
L 2241 4666 
Q 2963 4666 3353 4366 
Q 3744 4066 3744 3513 
Q 3744 3084 3544 2831 
Q 3344 2578 2956 2516 
Q 3422 2416 3680 2098 
Q 3938 1781 3938 1306 
Q 3938 681 3513 340 
Q 3088 0 2303 0 
L 628 0 
L 628 4666 
z
" transform="scale(0.015625)"/>
     </defs>
     <use xlink:href="#DejaVuSans-61"/>
     <use xlink:href="#DejaVuSans-14" transform="translate(83.796875 0)"/>
     <use xlink:href="#DejaVuSans-3" transform="translate(147.421875 0)"/>
     <use xlink:href="#DejaVuSans-2e" transform="translate(179.203125 0)"/>
     <use xlink:href="#DejaVuSans-25" transform="translate(244.78125 0)"/>
    </g>
   </g>
   <g id="text_15">
    <!-- ~64 KB -->
    <g style="fill: #26323f" transform="translate(166.912579 75.411601) scale(0.085 -0.085)">
     <use xlink:href="#DejaVuSans-61"/>
     <use xlink:href="#DejaVuSans-19" transform="translate(83.796875 0)"/>
     <use xlink:href="#DejaVuSans-17" transform="translate(147.421875 0)"/>
     <use xlink:href="#DejaVuSans-3" transform="translate(211.046875 0)"/>
     <use xlink:href="#DejaVuSans-2e" transform="translate(242.828125 0)"/>
     <use xlink:href="#DejaVuSans-25" transform="translate(308.40625 0)"/>
    </g>
   </g>
   <g id="text_16">
    <!-- ~1 MB -->
    <g style="fill: #26323f" transform="translate(191.017541 105.864773) scale(0.085 -0.085)">
     <use xlink:href="#DejaVuSans-61"/>
     <use xlink:href="#DejaVuSans-14" transform="translate(83.796875 0)"/>
     <use xlink:href="#DejaVuSans-3" transform="translate(147.421875 0)"/>
     <use xlink:href="#DejaVuSans-30" transform="translate(179.203125 0)"/>
     <use xlink:href="#DejaVuSans-25" transform="translate(265.484375 0)"/>
    </g>
   </g>
   <g id="text_17">
    <!-- ~32 MB -->
    <g style="fill: #26323f" transform="translate(214.000303 136.317945) scale(0.085 -0.085)">
     <use xlink:href="#DejaVuSans-61"/>
     <use xlink:href="#DejaVuSans-16" transform="translate(83.796875 0)"/>
     <use xlink:href="#DejaVuSans-15" transform="translate(147.421875 0)"/>
     <use xlink:href="#DejaVuSans-3" transform="translate(211.046875 0)"/>
     <use xlink:href="#DejaVuSans-30" transform="translate(242.828125 0)"/>
     <use xlink:href="#DejaVuSans-25" transform="translate(329.109375 0)"/>
    </g>
   </g>
   <g id="text_18">
    <!-- ~16 GB -->
    <g style="fill: #26323f" transform="translate(246.987528 166.771118) scale(0.085 -0.085)">
     <defs>
      <path id="DejaVuSans-2a" d="M 3809 666 
L 3809 1919 
L 2778 1919 
L 2778 2438 
L 4434 2438 
L 4434 434 
Q 4069 175 3628 42 
Q 3188 -91 2688 -91 
Q 1594 -91 976 548 
Q 359 1188 359 2328 
Q 359 3472 976 4111 
Q 1594 4750 2688 4750 
Q 3144 4750 3555 4637 
Q 3966 4525 4313 4306 
L 4313 3634 
Q 3963 3931 3569 4081 
Q 3175 4231 2741 4231 
Q 1884 4231 1454 3753 
Q 1025 3275 1025 2328 
Q 1025 1384 1454 906 
Q 1884 428 2741 428 
Q 3075 428 3337 486 
Q 3600 544 3809 666 
z
" transform="scale(0.015625)"/>
     </defs>
     <use xlink:href="#DejaVuSans-61"/>
     <use xlink:href="#DejaVuSans-14" transform="translate(83.796875 0)"/>
     <use xlink:href="#DejaVuSans-19" transform="translate(147.421875 0)"/>
     <use xlink:href="#DejaVuSans-3" transform="translate(211.046875 0)"/>
     <use xlink:href="#DejaVuSans-2a" transform="translate(242.828125 0)"/>
     <use xlink:href="#DejaVuSans-25" transform="translate(320.3125 0)"/>
    </g>
   </g>
   <g id="text_19">
    <!-- ~1 TB -->
    <g style="fill: #26323f" transform="translate(367.099951 197.22429) scale(0.085 -0.085)">
     <defs>
      <path id="DejaVuSans-37" d="M -19 4666 
L 3928 4666 
L 3928 4134 
L 2272 4134 
L 2272 0 
L 1638 0 
L 1638 4134 
L -19 4134 
L -19 4666 
z
" transform="scale(0.015625)"/>
     </defs>
     <use xlink:href="#DejaVuSans-61"/>
     <use xlink:href="#DejaVuSans-14" transform="translate(83.796875 0)"/>
     <use xlink:href="#DejaVuSans-3" transform="translate(147.421875 0)"/>
     <use xlink:href="#DejaVuSans-37" transform="translate(179.203125 0)"/>
     <use xlink:href="#DejaVuSans-25" transform="translate(240.28125 0)"/>
    </g>
   </g>
   <g id="text_20">
    <!-- ≫ 1 TB -->
    <g style="fill: #26323f" transform="translate(447.1749 227.677462) scale(0.085 -0.085)">
     <defs>
      <path id="DejaVuSans-cf5" d="M 463 3253 
L 463 3897 
L 3831 2266 
L 3831 1769 
L 463 144 
L 463 759 
L 3044 2003 
L 463 3253 
z
M 2869 3253 
L 2869 3897 
L 6238 2266 
L 6238 1769 
L 2869 144 
L 2869 759 
L 5450 2003 
L 2869 3253 
z
" transform="scale(0.015625)"/>
     </defs>
     <use xlink:href="#DejaVuSans-cf5"/>
     <use xlink:href="#DejaVuSans-3" transform="translate(104.6875 0)"/>
     <use xlink:href="#DejaVuSans-14" transform="translate(136.46875 0)"/>
     <use xlink:href="#DejaVuSans-3" transform="translate(200.09375 0)"/>
     <use xlink:href="#DejaVuSans-37" transform="translate(231.875 0)"/>
     <use xlink:href="#DejaVuSans-25" transform="translate(292.953125 0)"/>
    </g>
   </g>
   <g id="patch_12">
    <path d="M 290.800541 158.46439 
Q 265.802527 161.397054 241.914932 164.199448 
" style="fill: none; stroke: #b0842f; stroke-linecap: round"/>
    <path d="M 245.279563 165.415696 
L 241.914932 164.199448 
L 244.906709 162.237492 
" style="fill: none; stroke: #b0842f; stroke-linecap: round"/>
   </g>
   <g id="text_21">
    <!-- ~100× slower -->
    <g style="fill: #8a6a1f" transform="translate(294.785067 151.915605) scale(0.08 -0.08)">
     <defs>
      <path id="DejaVuSans-99" d="M 4488 3438 
L 3059 2003 
L 4488 575 
L 4116 197 
L 2681 1631 
L 1247 197 
L 878 575 
L 2303 2003 
L 878 3438 
L 1247 3816 
L 2681 2381 
L 4116 3816 
L 4488 3438 
z
" transform="scale(0.015625)"/>
     </defs>
     <use xlink:href="#DejaVuSans-61"/>
     <use xlink:href="#DejaVuSans-14" transform="translate(83.796875 0)"/>
     <use xlink:href="#DejaVuSans-13" transform="translate(147.421875 0)"/>
     <use xlink:href="#DejaVuSans-13" transform="translate(211.046875 0)"/>
     <use xlink:href="#DejaVuSans-99" transform="translate(274.671875 0)"/>
     <use xlink:href="#DejaVuSans-3" transform="translate(358.46875 0)"/>
     <use xlink:href="#DejaVuSans-56" transform="translate(390.25 0)"/>
     <use xlink:href="#DejaVuSans-4f" transform="translate(442.34375 0)"/>
     <use xlink:href="#DejaVuSans-52" transform="translate(470.125 0)"/>
     <use xlink:href="#DejaVuSans-5a" transform="translate(531.3125 0)"/>
     <use xlink:href="#DejaVuSans-48" transform="translate(613.09375 0)"/>
     <use xlink:href="#DejaVuSans-55" transform="translate(674.625 0)"/>
    </g>
    <!-- than cache -->
    <g style="fill: #8a6a1f" transform="translate(294.785067 161.517792) scale(0.08 -0.08)">
     <use xlink:href="#DejaVuSans-57"/>
     <use xlink:href="#DejaVuSans-4b" transform="translate(39.203125 0)"/>
     <use xlink:href="#DejaVuSans-44" transform="translate(102.578125 0)"/>
     <use xlink:href="#DejaVuSans-51" transform="translate(163.859375 0)"/>
     <use xlink:href="#DejaVuSans-3" transform="translate(227.234375 0)"/>
     <use xlink:href="#DejaVuSans-46" transform="translate(259.015625 0)"/>
     <use xlink:href="#DejaVuSans-44" transform="translate(314 0)"/>
     <use xlink:href="#DejaVuSans-46" transform="translate(375.28125 0)"/>
     <use xlink:href="#DejaVuSans-4b" transform="translate(430.265625 0)"/>
     <use xlink:href="#DejaVuSans-48" transform="translate(493.640625 0)"/>
    </g>
   </g>
   <g id="text_22">
    <!-- The memory hierarchy: closer is smaller, but far faster -->
    <g style="fill: #26323f" transform="translate(128.281844 17.229938) scale(0.132 -0.132)">
     <defs>
      <path id="DejaVuSans-5c" d="M 2059 -325 
Q 1816 -950 1584 -1140 
Q 1353 -1331 966 -1331 
L 506 -1331 
L 506 -850 
L 844 -850 
Q 1081 -850 1212 -737 
Q 1344 -625 1503 -206 
L 1606 56 
L 191 3500 
L 800 3500 
L 1894 763 
L 2988 3500 
L 3597 3500 
L 2059 -325 
z
" transform="scale(0.015625)"/>
      <path id="DejaVuSans-1d" d="M 750 794 
L 1409 794 
L 1409 0 
L 750 0 
L 750 794 
z
M 750 3309 
L 1409 3309 
L 1409 2516 
L 750 2516 
L 750 3309 
z
" transform="scale(0.015625)"/>
      <path id="DejaVuSans-45" d="M 3116 1747 
Q 3116 2381 2855 2742 
Q 2594 3103 2138 3103 
Q 1681 3103 1420 2742 
Q 1159 2381 1159 1747 
Q 1159 1113 1420 752 
Q 1681 391 2138 391 
Q 2594 391 2855 752 
Q 3116 1113 3116 1747 
z
M 1159 2969 
Q 1341 3281 1617 3432 
Q 1894 3584 2278 3584 
Q 2916 3584 3314 3078 
Q 3713 2572 3713 1747 
Q 3713 922 3314 415 
Q 2916 -91 2278 -91 
Q 1894 -91 1617 61 
Q 1341 213 1159 525 
L 1159 0 
L 581 0 
L 581 4863 
L 1159 4863 
L 1159 2969 
z
" transform="scale(0.015625)"/>
      <path id="DejaVuSans-58" d="M 544 1381 
L 544 3500 
L 1119 3500 
L 1119 1403 
Q 1119 906 1312 657 
Q 1506 409 1894 409 
Q 2359 409 2629 706 
Q 2900 1003 2900 1516 
L 2900 3500 
L 3475 3500 
L 3475 0 
L 2900 0 
L 2900 538 
Q 2691 219 2414 64 
Q 2138 -91 1772 -91 
Q 1169 -91 856 284 
Q 544 659 544 1381 
z
M 1991 3584 
L 1991 3584 
z
" transform="scale(0.015625)"/>
     </defs>
     <use xlink:href="#DejaVuSans-37"/>
     <use xlink:href="#DejaVuSans-4b" transform="translate(61.078125 0)"/>
     <use xlink:href="#DejaVuSans-48" transform="translate(124.453125 0)"/>
     <use xlink:href="#DejaVuSans-3" transform="translate(185.984375 0)"/>
     <use xlink:href="#DejaVuSans-50" transform="translate(217.765625 0)"/>
     <use xlink:href="#DejaVuSans-48" transform="translate(315.171875 0)"/>
     <use xlink:href="#DejaVuSans-50" transform="translate(376.703125 0)"/>
     <use xlink:href="#DejaVuSans-52" transform="translate(474.109375 0)"/>
     <use xlink:href="#DejaVuSans-55" transform="translate(535.296875 0)"/>
     <use xlink:href="#DejaVuSans-5c" transform="translate(576.40625 0)"/>
     <use xlink:href="#DejaVuSans-3" transform="translate(635.59375 0)"/>
     <use xlink:href="#DejaVuSans-4b" transform="translate(667.375 0)"/>
     <use xlink:href="#DejaVuSans-4c" transform="translate(730.75 0)"/>
     <use xlink:href="#DejaVuSans-48" transform="translate(758.53125 0)"/>
     <use xlink:href="#DejaVuSans-55" transform="translate(820.0625 0)"/>
     <use xlink:href="#DejaVuSans-44" transform="translate(861.171875 0)"/>
     <use xlink:href="#DejaVuSans-55" transform="translate(922.453125 0)"/>
     <use xlink:href="#DejaVuSans-46" transform="translate(961.359375 0)"/>
     <use xlink:href="#DejaVuSans-4b" transform="translate(1016.34375 0)"/>
     <use xlink:href="#DejaVuSans-5c" transform="translate(1079.71875 0)"/>
     <use xlink:href="#DejaVuSans-1d" transform="translate(1131.625 0)"/>
     <use xlink:href="#DejaVuSans-3" transform="translate(1165.3125 0)"/>
     <use xlink:href="#DejaVuSans-46" transform="translate(1197.09375 0)"/>
     <use xlink:href="#DejaVuSans-4f" transform="translate(1252.078125 0)"/>
     <use xlink:href="#DejaVuSans-52" transform="translate(1279.859375 0)"/>
     <use xlink:href="#DejaVuSans-56" transform="translate(1341.046875 0)"/>
     <use xlink:href="#DejaVuSans-48" transform="translate(1393.140625 0)"/>
     <use xlink:href="#DejaVuSans-55" transform="translate(1454.671875 0)"/>
     <use xlink:href="#DejaVuSans-3" transform="translate(1495.78125 0)"/>
     <use xlink:href="#DejaVuSans-4c" transform="translate(1527.5625 0)"/>
     <use xlink:href="#DejaVuSans-56" transform="translate(1555.34375 0)"/>
     <use xlink:href="#DejaVuSans-3" transform="translate(1607.4375 0)"/>
     <use xlink:href="#DejaVuSans-56" transform="translate(1639.21875 0)"/>
     <use xlink:href="#DejaVuSans-50" transform="translate(1691.3125 0)"/>
     <use xlink:href="#DejaVuSans-44" transform="translate(1788.71875 0)"/>
     <use xlink:href="#DejaVuSans-4f" transform="translate(1850 0)"/>
     <use xlink:href="#DejaVuSans-4f" transform="translate(1877.78125 0)"/>
     <use xlink:href="#DejaVuSans-48" transform="translate(1905.5625 0)"/>
     <use xlink:href="#DejaVuSans-55" transform="translate(1967.09375 0)"/>
     <use xlink:href="#DejaVuSans-f" transform="translate(2008.203125 0)"/>
     <use xlink:href="#DejaVuSans-3" transform="translate(2039.984375 0)"/>
     <use xlink:href="#DejaVuSans-45" transform="translate(2071.765625 0)"/>
     <use xlink:href="#DejaVuSans-58" transform="translate(2135.25 0)"/>
     <use xlink:href="#DejaVuSans-57" transform="translate(2198.625 0)"/>
     <use xlink:href="#DejaVuSans-3" transform="translate(2237.828125 0)"/>
     <use xlink:href="#DejaVuSans-49" transform="translate(2269.609375 0)"/>
     <use xlink:href="#DejaVuSans-44" transform="translate(2304.8125 0)"/>
     <use xlink:href="#DejaVuSans-55" transform="translate(2366.09375 0)"/>
     <use xlink:href="#DejaVuSans-3" transform="translate(2407.203125 0)"/>
     <use xlink:href="#DejaVuSans-49" transform="translate(2438.984375 0)"/>
     <use xlink:href="#DejaVuSans-44" transform="translate(2474.1875 0)"/>
     <use xlink:href="#DejaVuSans-56" transform="translate(2535.46875 0)"/>
     <use xlink:href="#DejaVuSans-57" transform="translate(2587.5625 0)"/>
     <use xlink:href="#DejaVuSans-48" transform="translate(2626.765625 0)"/>
     <use xlink:href="#DejaVuSans-55" transform="translate(2688.296875 0)"/>
    </g>
   </g>
  </g>
 </g>
 <defs>
  <clipPath id="pc80eb8f7d5">
   <rect x="118.702656" y="23.229938" width="379.44" height="221.76"/>
  </clipPath>
 </defs>
</svg>
